<svg width="223" height="106" viewBox="0 0 223 106" fill="none" xmlns="http://www.w3.org/2000/svg">
<path d="M71.4768 55.7436C69.3769 54.9532 67.0294 56.0149 66.239 58.1148C66.062 58.5866 65.7317 59.1883 65.2598 59.8371C64.5638 60.8162 63.5611 61.8544 62.4876 62.7745C61.4141 63.6947 60.258 64.4968 59.3142 65.0277C56.6717 66.5141 53.8405 67.2219 51.0211 67.2219C49.7824 67.2219 48.5437 67.0804 47.3405 66.8208C45.1462 66.3372 42.9756 67.7174 42.4802 69.9116C41.9965 72.1058 43.3767 74.2764 45.5709 74.7719C47.3523 75.173 49.1808 75.3735 51.0211 75.3735C55.1971 75.3735 59.444 74.3236 63.3251 72.1294C65.2716 71.0205 67.3361 69.4987 69.2236 67.6466C70.1673 66.7264 71.0639 65.7119 71.8542 64.6148C72.6446 63.5177 73.3407 62.3262 73.8479 60.9932C74.6383 58.8816 73.5766 56.534 71.4768 55.7436Z" fill="#E5E5E5"/>
<path d="M75.9359 48.5829C75.6882 44.9967 74.6383 41.3869 72.7508 38.0602C71.0874 35.1228 68.8932 32.6336 66.3805 30.6636C63.856 28.7053 61.0011 27.2543 57.9929 26.3813C55.8341 25.7561 53.5809 26.9947 52.9557 29.1536C52.3305 31.3124 53.5691 33.5656 55.728 34.1908C57.7688 34.7806 59.6917 35.7598 61.3904 37.081C63.0892 38.4023 64.552 40.0656 65.6845 42.0593C66.9703 44.3243 67.6545 46.7308 67.8315 49.1492C67.9849 51.3906 69.9313 53.0775 72.1727 52.9242C74.4023 52.7708 76.0893 50.8243 75.9359 48.5829Z" fill="#FCA311"/>
<path d="M58.63 57.7845C62.6527 53.7735 62.6645 47.2499 58.6536 43.2154C54.6427 39.1809 48.119 39.1809 44.0845 43.1918C40.0618 47.2027 39.4719 58.3389 41.4774 60.3444C43.4711 62.3498 54.5955 61.7954 58.63 57.7845Z" fill="#14213D"/>
<path d="M46.9394 34.0139C49.1218 33.4712 50.443 31.2652 49.9004 29.0828C49.3577 26.9004 47.1517 25.5791 44.9693 26.1218C42.8223 26.6526 40.7106 27.4784 38.6816 28.6227C34.6353 30.9113 31.4501 34.1908 29.2913 37.9658C27.1325 41.7408 26 46.023 26 50.3878C26 50.5412 26 50.6946 26 50.8479V75.5976C26 77.839 27.8167 79.6675 30.0699 79.6675C32.3231 79.6675 34.1398 77.8508 34.1398 75.5976V50.3642C34.1398 50.3524 34.1398 50.3289 34.1398 50.3171C34.1516 47.4032 34.9184 44.5248 36.3576 42.0003C37.8086 39.4522 39.932 37.258 42.6807 35.7008C44.0609 34.934 45.4883 34.3796 46.9394 34.0139Z" fill="#14213D"/>
<path d="M96.2737 41.3515C96.3917 41.0448 96.4507 40.7027 96.4507 40.3724V40.3134C96.4507 39.9831 96.3917 39.641 96.2737 39.3342C96.1558 39.0275 95.967 38.7326 95.7429 38.4967L95.7311 38.4849L95.7193 38.4731C95.4833 38.2371 95.1884 38.0366 94.8817 37.9068C94.5632 37.7771 94.2211 37.7181 93.8908 37.7181H92.3218C90.7646 37.7181 89.29 37.9894 87.9334 38.5439C86.5767 39.0983 85.3499 39.9359 84.2528 41.033C83.1793 42.1301 82.3535 43.357 81.799 44.7018C81.2446 46.0466 80.9615 47.5212 80.9379 49.0784V65.3344C80.9379 65.6648 80.9969 66.0069 81.1266 66.3136C81.2564 66.6203 81.4569 66.9034 81.6929 67.1394C81.9288 67.3753 82.2119 67.5758 82.5186 67.7056C82.8254 67.8354 83.1675 67.8944 83.4978 67.8944H83.5804C83.9107 67.8944 84.2528 67.8354 84.5595 67.7056C84.8662 67.5758 85.1493 67.3753 85.3853 67.1394C85.6212 66.9034 85.8218 66.6203 85.9515 66.3136C86.0813 66.0069 86.1403 65.6648 86.1403 65.3344V49.102C86.1521 48.229 86.3054 47.4505 86.6003 46.7309C86.8953 46.0112 87.3435 45.3506 87.9452 44.7372C88.5586 44.1238 89.2192 43.6755 89.9388 43.3806C90.6584 43.0856 91.437 42.9323 92.31 42.9323H93.879C94.2211 42.9323 94.5632 42.8733 94.8699 42.7435C95.1884 42.6138 95.4716 42.425 95.7075 42.1773C95.9552 41.9531 96.144 41.67 96.2737 41.3515Z" fill="#14213D"/>
<path d="M120.681 42.1419C119.219 40.6791 117.591 39.5702 115.797 38.827C114.004 38.0838 112.07 37.7181 110.005 37.7181C107.941 37.7181 105.994 38.0838 104.213 38.827C102.42 39.5702 100.792 40.6791 99.3291 42.1419C97.8663 43.6047 96.7574 45.2327 96.0142 47.0258C95.271 48.8189 94.9053 50.7536 94.9053 52.818C94.9053 54.8825 95.271 56.8289 96.0142 58.6103C96.7574 60.4034 97.8663 62.0313 99.3291 63.4941C100.792 64.9569 102.42 66.0658 104.213 66.809C106.006 67.5522 107.941 67.9179 110.005 67.9179C112.07 67.9179 114.016 67.5522 115.797 66.809C117.591 66.0658 119.219 64.9569 120.681 63.4941C122.144 62.0313 123.253 60.4034 123.996 58.6103C124.739 56.8171 125.105 54.8825 125.105 52.818C125.105 50.7536 124.739 48.8071 123.996 47.0258C123.241 45.2327 122.132 43.6047 120.681 42.1419ZM116.977 59.8843C116.01 60.8634 114.96 61.5831 113.804 62.0667C112.648 62.5504 111.397 62.7863 110.005 62.7863C108.625 62.7863 107.363 62.5386 106.207 62.0667C105.051 61.5831 103.989 60.8634 103.01 59.8843C102.042 58.9052 101.323 57.8435 100.851 56.6874C100.379 55.5313 100.131 54.2808 100.131 52.9124C100.131 51.5322 100.367 50.2699 100.851 49.1138C101.323 47.9577 102.042 46.896 103.01 45.9169C103.989 44.9377 105.051 44.2181 106.207 43.7345C107.363 43.2508 108.625 43.0149 110.005 43.0149C111.397 43.0149 112.659 43.2626 113.804 43.7345C114.96 44.2181 116.01 44.9377 116.965 45.9169C117.944 46.896 118.664 47.9577 119.148 49.1256C119.631 50.2817 119.867 51.544 119.867 52.9242C119.867 54.2926 119.62 55.5431 119.148 56.6992C118.676 57.8317 117.956 58.8934 116.977 59.8843Z" fill="#14213D"/>
<path d="M152.639 42.1419C151.176 40.6791 149.548 39.5702 147.755 38.827C145.962 38.0838 144.027 37.7181 141.963 37.7181C139.898 37.7181 137.952 38.0838 136.171 38.8152C134.389 39.5466 132.761 40.6555 131.31 42.1065C129.847 43.5693 128.739 45.1973 127.995 46.9786C127.252 48.7599 126.875 50.6946 126.863 52.759V76.6594C126.863 76.9897 126.922 77.3318 127.052 77.6385C127.181 77.9452 127.382 78.2284 127.618 78.4643C127.854 78.7002 128.137 78.9008 128.444 79.0306C128.75 79.1603 129.092 79.2193 129.423 79.2193H129.505C129.836 79.2193 130.178 79.1603 130.484 79.0306C130.791 78.9008 131.074 78.7002 131.31 78.4643C131.546 78.2284 131.747 77.9452 131.877 77.6385C132.006 77.3318 132.065 76.9897 132.065 76.6594V64.1194C133.434 65.1693 134.802 66.0187 136.194 66.6321C138.093 67.4815 140.016 67.9062 141.939 67.9062C144.004 67.9062 145.95 67.5404 147.731 66.7972C149.525 66.054 151.153 64.9451 152.615 63.4823C154.078 62.0195 155.187 60.3916 155.93 58.5985C156.673 56.8053 157.039 54.8707 157.039 52.8062C157.039 50.7418 156.673 48.7953 155.93 47.014C155.211 45.2327 154.102 43.6047 152.639 42.1419ZM148.935 59.7427C147.967 60.7219 146.917 61.4415 145.773 61.9252C144.617 62.4088 143.367 62.6448 141.975 62.6448C140.594 62.6448 139.332 62.397 138.176 61.9252C137.02 61.4415 135.958 60.7219 134.979 59.7427C134.012 58.7636 133.292 57.7019 132.82 56.5458C132.348 55.3897 132.101 54.1393 132.101 52.7708C132.101 51.3906 132.337 50.1283 132.82 48.9723C133.292 47.8162 134.012 46.7545 134.979 45.7753C135.958 44.808 137.02 44.0884 138.176 43.6165C139.332 43.1446 140.594 42.8969 141.975 42.8969C143.355 42.8969 144.617 43.1328 145.761 43.6165C146.917 44.0884 147.967 44.808 148.947 45.7753C149.926 46.7545 150.645 47.8162 151.129 48.984C151.613 50.1401 151.849 51.4024 151.849 52.7826C151.849 54.1511 151.601 55.4015 151.129 56.5576C150.645 57.7019 149.926 58.7518 148.935 59.7427Z" fill="#14213D"/>
<path d="M188.525 56.1683C188.442 55.9206 188.324 55.6964 188.183 55.4841L188.171 55.4723L188.159 55.4605C187.911 55.1302 187.605 54.847 187.239 54.6583C186.873 54.4695 186.46 54.387 186.048 54.387C185.776 54.387 185.505 54.4224 185.245 54.4931C184.856 54.5993 184.49 54.8117 184.195 55.0948C183.901 55.3779 183.7 55.7436 183.558 56.1329C183.216 57.1238 182.756 57.9968 182.178 58.7872C181.6 59.5776 180.892 60.2736 180.055 60.887C179.182 61.524 178.262 61.9959 177.294 62.3144C176.327 62.6329 175.312 62.7863 174.239 62.7863C172.623 62.7863 171.148 62.4088 169.756 61.6538C168.635 61.0404 167.574 60.1792 166.559 59.0467C168.801 58.044 172.139 56.5458 176.563 54.5403C180.751 52.6528 184.125 51.131 186.696 49.975H186.708H186.72C187.015 49.8334 187.298 49.6446 187.522 49.3969C187.746 49.161 187.923 48.8661 188.041 48.5593V48.5475C188.147 48.2644 188.206 47.9577 188.206 47.651C188.206 47.2853 188.112 46.9078 187.959 46.5775V46.5657C187.357 45.2562 186.602 44.0648 185.694 43.003C184.785 41.9413 183.712 41.0094 182.497 40.2072C181.258 39.3932 179.937 38.7798 178.557 38.3669C177.176 37.954 175.737 37.7535 174.239 37.7535C172.174 37.7535 170.228 38.1191 168.447 38.8623C166.654 39.6055 165.026 40.7145 163.563 42.1773C162.1 43.6401 160.991 45.268 160.248 47.0611C159.505 48.8543 159.139 50.7889 159.139 52.8534C159.139 54.9178 159.505 56.8643 160.248 58.6456C160.991 60.4387 162.1 62.0667 163.563 63.5295C165.026 64.9923 166.654 66.1012 168.447 66.8444C170.24 67.5876 172.174 67.9533 174.239 67.9533C175.843 67.9533 177.4 67.7174 178.875 67.2455C180.35 66.7736 181.753 66.0658 183.075 65.1221C184.361 64.2019 185.458 63.1284 186.354 61.9133C187.251 60.7101 187.97 59.3534 188.478 57.8788V57.867C188.584 57.5839 188.643 57.2772 188.643 56.9705C188.643 56.6638 188.607 56.4042 188.525 56.1683ZM164.424 53.8797C164.377 53.455 164.365 53.1247 164.365 52.9006C164.365 51.5203 164.601 50.2581 165.085 49.102C165.556 47.9459 166.276 46.8842 167.243 45.9051C168.223 44.9259 169.284 44.2063 170.44 43.7226C171.596 43.239 172.859 43.003 174.239 43.003C175.772 43.003 177.2 43.3569 178.568 44.0765C179.654 44.6428 180.692 45.445 181.706 46.4949L164.471 54.2926C164.448 54.1392 164.436 54.0095 164.424 53.8797Z" fill="#14213D"/>
<path d="M196.83 28.0093C196.7 27.6908 196.511 27.4076 196.264 27.1717L196.252 27.1599L196.24 27.1481C196.004 26.924 195.721 26.7352 195.414 26.6172C195.107 26.4993 194.777 26.4403 194.447 26.4403H194.364C194.034 26.4403 193.704 26.4993 193.397 26.6172C193.09 26.7352 192.807 26.924 192.571 27.1481L192.559 27.1599L192.548 27.1717C192.312 27.4076 192.111 27.7026 191.981 28.0093C191.852 28.3278 191.793 28.6699 191.793 29.0002V65.3462C191.793 65.6765 191.852 66.0186 191.981 66.3253C192.111 66.6321 192.312 66.9152 192.548 67.1511C192.783 67.3871 193.067 67.5876 193.373 67.7174C193.68 67.8471 194.022 67.9061 194.352 67.9061H194.435C194.765 67.9061 195.107 67.8471 195.414 67.7174C195.721 67.5876 196.004 67.3871 196.24 67.1511C196.476 66.9152 196.676 66.6321 196.806 66.3253C196.936 66.0186 196.995 65.6765 196.995 65.3462V29.0002C197.019 28.6699 196.96 28.3278 196.83 28.0093Z" fill="#14213D"/>
</svg>
