<svg width="94" height="34" viewBox="0 0 94 34" fill="none" xmlns="http://www.w3.org/2000/svg">
<g clip-path="url(#clip0_101_1706)">
<path d="M26.8714 18.4099C25.8153 18.027 24.6347 18.5413 24.2372 19.5587C24.1482 19.7872 23.982 20.0787 23.7447 20.393C23.3947 20.8674 22.8904 21.3704 22.3505 21.8161C21.8106 22.2619 21.2292 22.6505 20.7545 22.9077C19.4256 23.6278 18.0017 23.9707 16.5837 23.9707C15.9608 23.9707 15.3378 23.9022 14.7327 23.7764C13.6291 23.5421 12.5375 24.2108 12.2883 25.2738C12.0451 26.3368 12.7392 27.3884 13.8427 27.6284C14.7386 27.8227 15.6582 27.9199 16.5837 27.9199C18.6839 27.9199 20.8198 27.4112 22.7717 26.3482C23.7506 25.811 24.7889 25.0738 25.7382 24.1765C26.2128 23.7307 26.6637 23.2392 27.0612 22.7077C27.4587 22.1762 27.8088 21.5989 28.0639 20.9531C28.4614 19.9301 27.9274 18.7928 26.8714 18.4099Z" fill="#FCA311"/>
<path d="M29.1139 14.9408C28.9893 13.2035 28.4613 11.4546 27.512 9.84297C26.6755 8.4199 25.5719 7.21397 24.3082 6.25958C23.0386 5.31085 21.6028 4.60789 20.0899 4.18495C19.0042 3.88207 17.871 4.48212 17.5566 5.52803C17.2422 6.5739 17.8651 7.66549 18.9509 7.96838C19.9772 8.25412 20.9443 8.7285 21.7986 9.36858C22.653 10.0087 23.3886 10.8145 23.9582 11.7804C24.6049 12.8777 24.949 14.0436 25.038 15.2152C25.1151 16.3011 26.094 17.1183 27.2213 17.044C28.3426 16.9697 29.191 16.0267 29.1139 14.9408Z" fill="#FCA311"/>
<path d="M14.5309 7.88245C15.6285 7.61953 16.293 6.5508 16.0201 5.49351C15.7471 4.43621 14.6377 3.79609 13.5401 4.05901C12.4603 4.31616 11.3983 4.71623 10.3779 5.2706C8.34289 6.37935 6.74098 7.96815 5.65527 9.797C4.56956 11.6259 4 13.7004 4 15.815C4 15.8893 4 15.9637 4 16.0379V28.0283C4 29.1142 4.91366 30 6.04685 30C7.18004 30 8.0937 29.1199 8.0937 28.0283V15.8036C8.0937 15.7979 8.0937 15.7865 8.0937 15.7808C8.09963 14.3691 8.48527 12.9746 9.20908 11.7516C9.93882 10.5171 11.0067 9.4541 12.3891 8.69969C13.0832 8.32821 13.8011 8.05962 14.5309 7.88245Z" fill="#FCA311"/>
<path d="M39.3424 11.437C39.4017 11.2884 39.4314 11.1227 39.4314 10.9627V10.9341C39.4314 10.7741 39.4017 10.6083 39.3424 10.4597C39.2831 10.3111 39.1881 10.1682 39.0754 10.054L39.0695 10.0482L39.0636 10.0425C38.9449 9.92819 38.7965 9.83106 38.6423 9.76818C38.4821 9.70534 38.3101 9.67676 38.144 9.67676H37.3549C36.5717 9.67676 35.8301 9.80819 35.1478 10.0768C34.4655 10.3454 33.8485 10.7512 33.2968 11.2827C32.7569 11.8142 32.3416 12.4086 32.0627 13.0601C31.7839 13.7116 31.6415 14.426 31.6296 15.1804V23.0559C31.6296 23.2159 31.6593 23.3817 31.7245 23.5303C31.7898 23.6788 31.8907 23.816 32.0093 23.9303C32.128 24.0446 32.2704 24.1418 32.4246 24.2046C32.5789 24.2675 32.751 24.2961 32.9171 24.2961H32.9586C33.1247 24.2961 33.2968 24.2675 33.451 24.2046C33.6053 24.1418 33.7477 24.0446 33.8663 23.9303C33.985 23.816 34.0859 23.6788 34.1511 23.5303C34.2164 23.3817 34.246 23.2159 34.246 23.0559V15.1919C34.252 14.7689 34.3291 14.3918 34.4774 14.0431C34.6258 13.6945 34.8512 13.3744 35.1538 13.0773C35.4623 12.7801 35.7945 12.5629 36.1564 12.42C36.5183 12.2771 36.9099 12.2029 37.3489 12.2029H38.138C38.3101 12.2029 38.4821 12.1743 38.6364 12.1114C38.7966 12.0485 38.939 11.9571 39.0576 11.8371C39.1822 11.7285 39.2771 11.5913 39.3424 11.437Z" fill="#252628"/>
<path d="M51.6173 11.8199C50.882 11.1113 50.0632 10.574 49.161 10.214C48.2592 9.85393 47.2866 9.67676 46.248 9.67676C45.21 9.67676 44.2308 9.85393 43.3351 10.214C42.4334 10.574 41.6146 11.1113 40.8789 11.8199C40.1432 12.5286 39.5855 13.3173 39.2117 14.186C38.838 15.0547 38.6541 15.992 38.6541 16.9921C38.6541 17.9923 38.838 18.9353 39.2117 19.7983C39.5855 20.667 40.1432 21.4556 40.8789 22.1643C41.6146 22.873 42.4334 23.4102 43.3351 23.7703C44.2369 24.1303 45.21 24.3075 46.248 24.3075C47.2866 24.3075 48.2653 24.1303 49.161 23.7703C50.0632 23.4102 50.882 22.873 51.6173 22.1643C52.353 21.4556 52.9108 20.667 53.2844 19.7983C53.6581 18.9295 53.8422 17.9923 53.8422 16.9921C53.8422 15.992 53.6581 15.049 53.2844 14.186C52.9047 13.3173 52.347 12.5286 51.6173 11.8199ZM49.7544 20.4155C49.2681 20.8898 48.74 21.2385 48.1587 21.4728C47.5773 21.7071 46.9481 21.8214 46.248 21.8214C45.554 21.8214 44.9193 21.7014 44.3379 21.4728C43.7566 21.2385 43.2225 20.8898 42.7301 20.4155C42.2433 19.9412 41.8817 19.4268 41.6443 18.8667C41.4069 18.3066 41.2822 17.7008 41.2822 17.0379C41.2822 16.3692 41.4009 15.7577 41.6443 15.1976C41.8817 14.6375 42.2433 14.1231 42.7301 13.6488C43.2225 13.1744 43.7566 12.8258 44.3379 12.5915C44.9193 12.3572 45.554 12.2429 46.248 12.2429C46.9481 12.2429 47.5828 12.3629 48.1587 12.5915C48.74 12.8258 49.2681 13.1744 49.7484 13.6488C50.2408 14.1231 50.6029 14.6375 50.8463 15.2033C51.0892 15.7634 51.2079 16.3749 51.2079 17.0436C51.2079 17.7065 51.0837 18.3123 50.8463 18.8724C50.6089 19.4211 50.2468 19.9354 49.7544 20.4155Z" fill="#252628"/>
<path d="M67.6897 11.8199C66.9539 11.1113 66.1351 10.574 65.2334 10.214C64.3317 9.85393 63.3585 9.67676 62.3205 9.67676C61.2819 9.67676 60.3032 9.85393 59.4075 10.2083C58.5113 10.5626 57.6926 11.0998 56.9628 11.8028C56.227 12.5115 55.6698 13.3002 55.2956 14.1631C54.922 15.0261 54.7324 15.9634 54.7263 16.9635V28.5424C54.7263 28.7025 54.756 28.8682 54.8214 29.0168C54.8862 29.1654 54.9873 29.3026 55.106 29.4168C55.2247 29.5311 55.367 29.6283 55.5214 29.6912C55.6753 29.754 55.8473 29.7826 56.0138 29.7826H56.055C56.2215 29.7826 56.3935 29.754 56.5474 29.6912C56.7018 29.6283 56.8441 29.5311 56.9628 29.4168C57.0815 29.3026 57.1826 29.1654 57.248 29.0168C57.3129 28.8682 57.3425 28.7025 57.3425 28.5424V22.4672C58.031 22.9759 58.719 23.3874 59.4191 23.6846C60.3742 24.0961 61.3413 24.3018 62.3084 24.3018C63.3469 24.3018 64.3256 24.1246 65.2213 23.7645C66.1236 23.4045 66.9423 22.8673 67.6776 22.1586C68.4134 21.4499 68.9711 20.6613 69.3448 19.7926C69.7185 18.9238 69.9025 17.9866 69.9025 16.9864C69.9025 15.9863 69.7185 15.0433 69.3448 14.1803C68.9832 13.3173 68.4255 12.5286 67.6897 11.8199ZM65.8268 20.3469C65.34 20.8213 64.8119 21.1699 64.2366 21.4042C63.6552 21.6385 63.0266 21.7529 62.3265 21.7529C61.632 21.7529 60.9973 21.6328 60.4159 21.4042C59.8345 21.1699 59.3004 20.8213 58.808 20.3469C58.3217 19.8726 57.9596 19.3582 57.7222 18.7981C57.4849 18.238 57.3606 17.6322 57.3606 16.9693C57.3606 16.3006 57.4793 15.6891 57.7222 15.129C57.9596 14.5689 58.3217 14.0546 58.808 13.5802C59.3004 13.1116 59.8345 12.7629 60.4159 12.5343C60.9973 12.3057 61.632 12.1857 62.3265 12.1857C63.0205 12.1857 63.6552 12.3 64.2306 12.5343C64.8119 12.7629 65.34 13.1116 65.8329 13.5802C66.3252 14.0546 66.6868 14.5689 66.9303 15.1347C67.1737 15.6948 67.2924 16.3063 67.2924 16.975C67.2924 17.638 67.1676 18.2437 66.9303 18.8038C66.6868 19.3582 66.3252 19.8668 65.8268 20.3469Z" fill="#252628"/>
<path d="M85.7376 18.6157C85.6959 18.4956 85.6365 18.387 85.5656 18.2842L85.5596 18.2785L85.5536 18.2727C85.4288 18.1127 85.2749 17.9755 85.0909 17.8841C84.9068 17.7926 84.6991 17.7527 84.4919 17.7527C84.3551 17.7527 84.2188 17.7698 84.088 17.8041C83.8924 17.8555 83.7083 17.9584 83.56 18.0956C83.4121 18.2327 83.311 18.4099 83.2396 18.5985C83.0676 19.0786 82.8363 19.5015 82.5456 19.8844C82.2549 20.2673 81.8988 20.6045 81.4779 20.9017C81.0388 21.2103 80.5761 21.4389 80.0893 21.5932C79.603 21.7475 79.0925 21.8218 78.5529 21.8218C77.7402 21.8218 76.9983 21.639 76.2983 21.2732C75.7345 20.976 75.2009 20.5588 74.6904 20.0101C75.818 19.5244 77.4967 18.7985 79.7217 17.8269C81.8279 16.9125 83.5248 16.1753 84.8178 15.6152H84.8238H84.8299C84.9782 15.5466 85.1206 15.4552 85.2332 15.3351C85.3459 15.2209 85.4349 15.078 85.4942 14.9294V14.9236C85.5475 14.7865 85.5772 14.6379 85.5772 14.4893C85.5772 14.3122 85.5299 14.1293 85.453 13.9692V13.9635C85.1502 13.3291 84.7705 12.7519 84.3139 12.2375C83.8567 11.7232 83.3171 11.2717 82.706 10.8831C82.0829 10.4887 81.4185 10.1915 80.7245 9.99151C80.03 9.79147 79.3063 9.69434 78.5529 9.69434C77.5143 9.69434 76.5357 9.87146 75.6399 10.2315C74.7382 10.5916 73.9194 11.1288 73.1837 11.8375C72.4479 12.5462 71.8902 13.3348 71.5165 14.2035C71.1428 15.0723 70.9587 16.0095 70.9587 17.0097C70.9587 18.0098 71.1428 18.9528 71.5165 19.8158C71.8902 20.6845 72.4479 21.4732 73.1837 22.1819C73.9194 22.8906 74.7382 23.4278 75.6399 23.7878C76.5417 24.1479 77.5143 24.3251 78.5529 24.3251C79.3596 24.3251 80.1426 24.2108 80.8844 23.9822C81.6262 23.7535 82.3318 23.4106 82.9967 22.9534C83.6435 22.5076 84.1952 21.9876 84.6458 21.3989C85.0969 20.816 85.4585 20.1587 85.714 19.4443V19.4386C85.7673 19.3015 85.797 19.1529 85.797 19.0043C85.797 18.8557 85.7789 18.7299 85.7376 18.6157ZM73.6167 17.5069C73.593 17.3012 73.587 17.1411 73.587 17.0326C73.587 16.3639 73.7057 15.7524 73.9491 15.1923C74.186 14.6322 74.5481 14.1178 75.0344 13.6435C75.5273 13.1691 76.0609 12.8205 76.6423 12.5862C77.2237 12.3519 77.8588 12.2375 78.5529 12.2375C79.3239 12.2375 80.042 12.409 80.73 12.7576C81.2762 13.032 81.7982 13.4206 82.3082 13.9292L73.6403 17.7069C73.6288 17.6326 73.6227 17.5698 73.6167 17.5069Z" fill="#252628"/>
<path d="M89.9143 4.97302C89.849 4.81871 89.7539 4.68151 89.6297 4.56723L89.6236 4.56151L89.6176 4.55579C89.4989 4.44723 89.3566 4.35576 89.2022 4.29859C89.0478 4.24147 88.8818 4.21289 88.7159 4.21289H88.6741C88.5082 4.21289 88.3422 4.24147 88.1878 4.29859C88.0334 4.35576 87.8911 4.44723 87.7724 4.55579L87.7663 4.56151L87.7608 4.56723C87.6421 4.68151 87.541 4.82443 87.4757 4.97302C87.4108 5.12732 87.3811 5.29305 87.3811 5.45307V23.0614C87.3811 23.2214 87.4108 23.3872 87.4757 23.5358C87.541 23.6844 87.6421 23.8215 87.7608 23.9358C87.879 24.0502 88.0218 24.1473 88.1757 24.2102C88.3301 24.273 88.5021 24.3016 88.6681 24.3016H88.7098C88.8758 24.3016 89.0478 24.273 89.2022 24.2102C89.3566 24.1473 89.4989 24.0502 89.6176 23.9358C89.7363 23.8215 89.8369 23.6844 89.9023 23.5358C89.9676 23.3872 89.9973 23.2214 89.9973 23.0614V5.45307C90.0094 5.29305 89.9797 5.12732 89.9143 4.97302Z" fill="#252628"/>
<mask id="mask0_101_1706" style="mask-type:alpha" maskUnits="userSpaceOnUse" x="11" y="10" width="11" height="12">
<path d="M20.2297 19.3078C22.2528 17.3646 22.2588 14.2042 20.2416 12.2496C18.2244 10.295 14.9435 10.295 12.9144 12.2382C10.8913 14.1813 10.5947 19.5764 11.6033 20.548C12.606 21.5195 18.2007 21.2509 20.2297 19.3078Z" fill="#14213D"/>
</mask>
<g mask="url(#mask0_101_1706)">
<path d="M23.1111 14.9C23.1111 19.5823 19.1707 23.3781 14.3099 23.3781C9.4492 23.3781 5.50879 19.5823 5.50879 14.9C5.50879 10.2177 9.4492 6.42188 14.3099 6.42188C19.1707 6.42188 23.1111 10.2177 23.1111 14.9Z" fill="url(#paint0_linear_101_1706)"/>
<path d="M23.1111 14.9C23.1111 19.5823 19.1707 23.3781 14.3099 23.3781C9.4492 23.3781 5.50879 19.5823 5.50879 14.9C5.50879 10.2177 9.4492 6.42188 14.3099 6.42188C19.1707 6.42188 23.1111 10.2177 23.1111 14.9Z" fill="url(#paint1_radial_101_1706)"/>
<path d="M23.1111 14.9C23.1111 19.5823 19.1707 23.3781 14.3099 23.3781C9.4492 23.3781 5.50879 19.5823 5.50879 14.9C5.50879 10.2177 9.4492 6.42188 14.3099 6.42188C19.1707 6.42188 23.1111 10.2177 23.1111 14.9Z" fill="url(#paint2_radial_101_1706)"/>
<path d="M23.1111 14.9C23.1111 19.5823 19.1707 23.3781 14.3099 23.3781C9.4492 23.3781 5.50879 19.5823 5.50879 14.9C5.50879 10.2177 9.4492 6.42188 14.3099 6.42188C19.1707 6.42188 23.1111 10.2177 23.1111 14.9Z" fill="url(#paint3_radial_101_1706)"/>
<path d="M23.1111 14.9C23.1111 19.5823 19.1707 23.3781 14.3099 23.3781C9.4492 23.3781 5.50879 19.5823 5.50879 14.9C5.50879 10.2177 9.4492 6.42188 14.3099 6.42188C19.1707 6.42188 23.1111 10.2177 23.1111 14.9Z" fill="url(#paint4_radial_101_1706)"/>
<path d="M23.1111 14.9C23.1111 19.5823 19.1707 23.3781 14.3099 23.3781C9.4492 23.3781 5.50879 19.5823 5.50879 14.9C5.50879 10.2177 9.4492 6.42188 14.3099 6.42188C19.1707 6.42188 23.1111 10.2177 23.1111 14.9Z" fill="url(#paint5_radial_101_1706)"/>
<g style="mix-blend-mode:soft-light" opacity="0.5">
<path d="M23.1111 14.9C23.1111 19.5823 19.1707 23.3781 14.3099 23.3781C9.4492 23.3781 5.50879 19.5823 5.50879 14.9C5.50879 10.2177 9.4492 6.42188 14.3099 6.42188C19.1707 6.42188 23.1111 10.2177 23.1111 14.9Z" fill="url(#paint6_linear_101_1706)"/>
<path d="M23.1111 14.9C23.1111 19.5823 19.1707 23.3781 14.3099 23.3781C9.4492 23.3781 5.50879 19.5823 5.50879 14.9C5.50879 10.2177 9.4492 6.42188 14.3099 6.42188C19.1707 6.42188 23.1111 10.2177 23.1111 14.9Z" fill="url(#paint7_radial_101_1706)"/>
<path d="M23.1111 14.9C23.1111 19.5823 19.1707 23.3781 14.3099 23.3781C9.4492 23.3781 5.50879 19.5823 5.50879 14.9C5.50879 10.2177 9.4492 6.42188 14.3099 6.42188C19.1707 6.42188 23.1111 10.2177 23.1111 14.9Z" fill="url(#paint8_radial_101_1706)"/>
<path d="M23.1111 14.9C23.1111 19.5823 19.1707 23.3781 14.3099 23.3781C9.4492 23.3781 5.50879 19.5823 5.50879 14.9C5.50879 10.2177 9.4492 6.42188 14.3099 6.42188C19.1707 6.42188 23.1111 10.2177 23.1111 14.9Z" fill="url(#paint9_radial_101_1706)"/>
<path d="M23.1111 14.9C23.1111 19.5823 19.1707 23.3781 14.3099 23.3781C9.4492 23.3781 5.50879 19.5823 5.50879 14.9C5.50879 10.2177 9.4492 6.42188 14.3099 6.42188C19.1707 6.42188 23.1111 10.2177 23.1111 14.9Z" fill="url(#paint10_radial_101_1706)"/>
</g>
</g>
</g>
<defs>
<linearGradient id="paint0_linear_101_1706" x1="14.3099" y1="8.36478" x2="18.0763" y2="21.1607" gradientUnits="userSpaceOnUse">
<stop stop-color="#A893E8"/>
<stop offset="1" stop-color="#9EA1DC"/>
</linearGradient>
<radialGradient id="paint1_radial_101_1706" cx="0" cy="0" r="1" gradientUnits="userSpaceOnUse" gradientTransform="translate(20.9108 22.3184) rotate(-131.918) scale(8.78271 8.45832)">
<stop stop-color="#606EF5"/>
<stop offset="1" stop-color="#909ADD" stop-opacity="0"/>
</radialGradient>
<radialGradient id="paint2_radial_101_1706" cx="0" cy="0" r="1" gradientUnits="userSpaceOnUse" gradientTransform="translate(18.7105 6.42188) rotate(117.432) scale(9.55216 9.35968)">
<stop stop-color="#8874FF"/>
<stop offset="1" stop-color="#8874FF" stop-opacity="0"/>
</radialGradient>
<radialGradient id="paint3_radial_101_1706" cx="0" cy="0" r="1" gradientUnits="userSpaceOnUse" gradientTransform="translate(3.3085 5.71536) rotate(35.5872) scale(15.7828 12.6521)">
<stop stop-color="white" stop-opacity="0.79"/>
<stop offset="1" stop-color="white" stop-opacity="0"/>
</radialGradient>
<radialGradient id="paint4_radial_101_1706" cx="0" cy="0" r="1" gradientUnits="userSpaceOnUse" gradientTransform="translate(6.97565 7.8349) rotate(43.929) scale(6.36481 4.61952)">
<stop stop-color="white" stop-opacity="0.49"/>
<stop offset="1" stop-color="white" stop-opacity="0"/>
</radialGradient>
<radialGradient id="paint5_radial_101_1706" cx="0" cy="0" r="1" gradientUnits="userSpaceOnUse" gradientTransform="translate(17.7104 14.9) rotate(48.8403) scale(4.86268 4.03508)">
<stop stop-color="white" stop-opacity="0.15"/>
<stop offset="1" stop-color="white" stop-opacity="0"/>
</radialGradient>
<linearGradient id="paint6_linear_101_1706" x1="14.3099" y1="8.36478" x2="18.0763" y2="21.1607" gradientUnits="userSpaceOnUse">
<stop stop-color="#A893E8"/>
<stop offset="1" stop-color="#9EA1DC"/>
</linearGradient>
<radialGradient id="paint7_radial_101_1706" cx="0" cy="0" r="1" gradientUnits="userSpaceOnUse" gradientTransform="translate(20.9108 22.3184) rotate(-131.918) scale(8.78271 8.45832)">
<stop stop-color="#606EF5"/>
<stop offset="1" stop-color="#909ADD" stop-opacity="0"/>
</radialGradient>
<radialGradient id="paint8_radial_101_1706" cx="0" cy="0" r="1" gradientUnits="userSpaceOnUse" gradientTransform="translate(18.7105 6.42188) rotate(117.047) scale(11.1327 10.9127)">
<stop stop-color="#8874FF"/>
<stop offset="1" stop-color="#8874FF" stop-opacity="0"/>
</radialGradient>
<radialGradient id="paint9_radial_101_1706" cx="0" cy="0" r="1" gradientUnits="userSpaceOnUse" gradientTransform="translate(3.3085 5.71536) rotate(38.6456) scale(16.0968 12.9539)">
<stop stop-color="white" stop-opacity="0.79"/>
<stop offset="1" stop-color="white" stop-opacity="0"/>
</radialGradient>
<radialGradient id="paint10_radial_101_1706" cx="0" cy="0" r="1" gradientUnits="userSpaceOnUse" gradientTransform="translate(6.97565 7.8349) rotate(42.4428) scale(9.13103 6.61437)">
<stop stop-color="white" stop-opacity="0.49"/>
<stop offset="1" stop-color="white" stop-opacity="0"/>
</radialGradient>
<clipPath id="clip0_101_1706">
<rect width="94" height="34" fill="white"/>
</clipPath>
</defs>
</svg>
