<svg width="512" height="512" viewBox="0 0 512 512" fill="none" xmlns="http://www.w3.org/2000/svg">
<path fill-rule="evenodd" clip-rule="evenodd" d="M512 0H0V512H512V0ZM249.355 108.877C252.719 122.382 244.506 136.067 231 139.432C221.973 141.683 213.161 145.131 204.708 149.908C187.67 159.57 174.524 173.136 165.508 188.928C156.576 204.576 151.823 222.416 151.751 240.447C151.751 240.492 151.753 240.535 151.756 240.577L151.759 240.638C151.762 240.677 151.763 240.717 151.763 240.759V397.029C151.763 410.954 140.485 422.232 126.56 422.232C112.636 422.232 101.357 410.942 101.357 397.029V243.728L101.357 243.692C101.345 242.747 101.333 241.813 101.333 240.878C101.345 213.891 108.385 187.359 121.735 163.952C135.073 140.545 154.792 120.251 179.876 106.051C192.399 98.9513 205.522 93.8268 218.8 90.5223C232.305 87.1579 245.99 95.3713 249.355 108.877ZM390.874 164.456C402.572 185.085 409.025 207.415 410.594 229.66C411.576 243.537 401.123 255.594 387.235 256.599C373.358 257.581 361.301 247.129 360.319 233.24C359.242 218.25 354.956 203.332 347.017 189.312C340.001 176.932 330.914 166.623 320.414 158.445C309.913 150.268 297.976 144.234 285.333 140.558C271.959 136.667 264.284 122.682 268.164 109.32C272.055 95.9467 286.039 88.272 299.401 92.1513C318.067 97.575 335.751 106.495 351.376 118.659C367 130.812 380.554 146.233 390.874 164.456ZM350.526 288.734C355.423 275.708 369.958 269.123 382.985 274.032C396.011 278.941 402.596 293.476 397.687 306.478C394.562 314.74 390.24 322.115 385.331 328.928C380.398 335.74 374.855 341.966 369.012 347.701C357.303 359.135 344.516 368.582 332.483 375.43H332.471C308.441 389.044 282.125 395.569 256.275 395.557C244.889 395.557 233.562 394.3 222.535 391.845C208.946 388.816 200.385 375.359 203.415 361.769C206.444 348.18 219.901 339.619 233.491 342.649C240.962 344.313 248.6 345.163 256.287 345.163C273.744 345.163 291.32 340.829 307.651 331.586C313.494 328.281 320.642 323.324 327.286 317.625C333.955 311.938 340.157 305.449 344.492 299.414C347.401 295.415 349.448 291.632 350.526 288.734ZM303.388 286.651C328.34 261.796 328.412 221.387 303.532 196.435C278.652 171.46 238.268 171.412 213.304 196.28C188.352 221.16 184.737 290.124 197.141 302.516C209.533 314.92 278.425 311.543 303.388 286.651Z" fill="#0A0A0A"/>
</svg>
