<svg width="512" height="512" viewBox="0 0 512 512" fill="none" xmlns="http://www.w3.org/2000/svg">
<g clip-path="url(#clip0)">
<path d="M382.985 274.032C369.958 269.123 355.423 275.708 350.526 288.734C349.449 291.632 347.401 295.415 344.492 299.414C340.158 305.449 333.956 311.938 327.287 317.625C320.642 323.324 313.494 328.281 307.651 331.586C291.32 340.829 273.744 345.163 256.287 345.163C248.601 345.163 240.962 344.313 233.491 342.649C219.901 339.619 206.444 348.18 203.415 361.769C200.386 375.359 208.946 388.816 222.535 391.845C233.563 394.3 244.889 395.557 256.275 395.557C282.125 395.569 308.441 389.044 332.471 375.43H332.483C344.516 368.582 357.303 359.135 369.012 347.701C374.855 341.966 380.399 335.74 385.331 328.928C390.24 322.115 394.563 314.74 397.688 306.478C402.596 293.476 396.011 278.941 382.985 274.032Z" fill="#E5E5E5"/>
<path d="M410.594 229.66C409.025 207.415 402.572 185.085 390.875 164.456C380.554 146.233 367.001 130.812 351.376 118.659C335.751 106.495 318.067 97.575 299.401 92.1513C286.04 88.272 272.055 95.9467 268.164 109.32C264.285 122.682 271.959 136.667 285.333 140.558C297.977 144.233 309.914 150.268 320.414 158.445C330.914 166.623 340.002 176.932 347.018 189.312C354.956 203.332 359.242 218.25 360.32 233.24C361.301 247.129 373.358 257.581 387.235 256.599C401.123 255.594 411.576 243.537 410.594 229.66Z" fill="#FCA311"/>
<path d="M303.388 286.651C328.34 261.796 328.412 221.387 303.532 196.435C278.652 171.46 238.268 171.412 213.304 196.28C188.352 221.16 184.737 290.124 197.141 302.516C209.533 314.92 278.425 311.543 303.388 286.651Z" fill="#14213D"/>
<path d="M231 139.432C244.506 136.067 252.719 122.382 249.355 108.877C245.99 95.3713 232.305 87.1579 218.8 90.5223C205.522 93.8268 192.4 98.9513 179.876 106.051C154.793 120.251 135.073 140.545 121.735 163.952C108.386 187.359 101.345 213.891 101.333 240.878C101.333 241.824 101.345 242.77 101.357 243.728V397.029C101.357 410.942 112.636 422.232 126.56 422.232C140.485 422.232 151.763 410.954 151.763 397.029V240.759C151.763 240.651 151.752 240.555 151.752 240.447C151.823 222.416 156.577 204.576 165.508 188.928C174.524 173.136 187.67 159.57 204.708 149.908C213.161 145.131 221.973 141.683 231 139.432Z" fill="#14213D"/>
</g>
<defs>
<clipPath id="clip0">
<rect width="512" height="512" rx="256" fill="white"/>
</clipPath>
</defs>
</svg>
