<svg width="200" height="200" viewBox="0 0 200 200" fill="none" xmlns="http://www.w3.org/2000/svg">
<rect width="200" height="200" fill="#050505"/>
<g clip-path="url(#clip0_101_1473)">
<path d="M155.206 107.16C149.843 105.215 143.848 107.827 141.829 112.994C141.377 114.154 140.533 115.635 139.328 117.231C137.551 119.639 134.99 122.194 132.248 124.457C129.507 126.721 126.554 128.694 124.144 130C117.395 133.657 110.164 135.399 102.964 135.399C99.8003 135.399 96.6368 135.05 93.5639 134.412C87.9599 133.222 82.4164 136.618 81.1512 142.016C79.9159 147.414 83.4408 152.754 89.0445 153.973C93.5941 154.96 98.2639 155.453 102.964 155.453C113.629 155.453 124.475 152.87 134.387 147.472C139.358 144.744 144.631 141 149.451 136.443C151.861 134.18 154.151 131.684 156.17 128.985C158.188 126.286 159.966 123.354 161.261 120.075C163.28 114.88 160.568 109.104 155.206 107.16Z" fill="#FCA311"/>
<path d="M166.594 89.5438C165.962 80.7211 163.28 71.8404 158.46 63.6562C154.212 56.4296 148.608 50.3058 142.191 45.4593C135.743 40.6415 128.452 37.0718 120.77 34.9241C115.256 33.386 109.502 36.4331 107.905 41.7444C106.308 47.0554 109.472 52.5987 114.985 54.1368C120.197 55.5878 125.108 57.9968 129.447 61.2472C133.785 64.4978 137.521 68.5898 140.413 73.4946C143.697 79.0669 145.444 84.9873 145.896 90.937C146.288 96.4512 151.259 100.601 156.984 100.224C162.678 99.8467 166.986 95.058 166.594 89.5438Z" fill="#FCA311"/>
<path d="M92.5398 53.6999C98.1134 52.3648 101.488 46.9377 100.102 41.5686C98.7159 36.1995 93.082 32.9489 87.5083 34.284C82.0251 35.5899 76.632 37.6215 71.4501 40.4367C61.1163 46.067 52.9816 54.1351 47.4682 63.4223C41.9548 72.7094 39.0625 83.2444 39.0625 93.9825C39.0625 94.3599 39.0625 94.7373 39.0625 95.1145V156.003C39.0625 161.517 43.7022 166.016 49.4566 166.016C55.2111 166.016 59.8508 161.546 59.8508 156.003V93.9245C59.8508 93.8954 59.8508 93.8376 59.8508 93.8086C59.8809 86.6399 61.8393 79.5586 65.5149 73.3479C69.2206 67.0791 74.6435 61.681 81.6635 57.85C85.1884 55.9635 88.8338 54.5996 92.5398 53.6999Z" fill="#FCA311"/>
<mask id="mask0_101_1473" style="mask-type:alpha" maskUnits="userSpaceOnUse" x="74" y="68" width="56" height="53">
<path d="M121.478 111.721C131.752 101.853 131.782 85.8038 121.538 75.8782C111.295 65.9526 94.6339 65.9526 84.3302 75.8201C74.0566 85.6876 72.55 113.085 77.6719 118.018C82.7636 122.952 111.174 121.588 121.478 111.721Z" fill="#14213D"/>
</mask>
<g mask="url(#mask0_101_1473)">
<path d="M136.11 89.3381C136.11 113.116 116.1 132.391 91.4165 132.391C66.7331 132.391 46.7231 113.116 46.7231 89.3381C46.7231 65.5606 66.7331 46.2852 91.4165 46.2852C116.1 46.2852 136.11 65.5606 136.11 89.3381Z" fill="url(#paint0_linear_101_1473)"/>
<path d="M136.11 89.3381C136.11 113.116 116.1 132.391 91.4165 132.391C66.7331 132.391 46.7231 113.116 46.7231 89.3381C46.7231 65.5606 66.7331 46.2852 91.4165 46.2852C116.1 46.2852 136.11 65.5606 136.11 89.3381Z" fill="url(#paint1_radial_101_1473)"/>
<path d="M136.11 89.3381C136.11 113.116 116.1 132.391 91.4165 132.391C66.7331 132.391 46.7231 113.116 46.7231 89.3381C46.7231 65.5606 66.7331 46.2852 91.4165 46.2852C116.1 46.2852 136.11 65.5606 136.11 89.3381Z" fill="url(#paint2_radial_101_1473)"/>
<path d="M136.11 89.3381C136.11 113.116 116.1 132.391 91.4165 132.391C66.7331 132.391 46.7231 113.116 46.7231 89.3381C46.7231 65.5606 66.7331 46.2852 91.4165 46.2852C116.1 46.2852 136.11 65.5606 136.11 89.3381Z" fill="url(#paint3_radial_101_1473)"/>
<path d="M136.11 89.3381C136.11 113.116 116.1 132.391 91.4165 132.391C66.7331 132.391 46.7231 113.116 46.7231 89.3381C46.7231 65.5606 66.7331 46.2852 91.4165 46.2852C116.1 46.2852 136.11 65.5606 136.11 89.3381Z" fill="url(#paint4_radial_101_1473)"/>
<path d="M136.11 89.3381C136.11 113.116 116.1 132.391 91.4165 132.391C66.7331 132.391 46.7231 113.116 46.7231 89.3381C46.7231 65.5606 66.7331 46.2852 91.4165 46.2852C116.1 46.2852 136.11 65.5606 136.11 89.3381Z" fill="url(#paint5_radial_101_1473)"/>
<g style="mix-blend-mode:soft-light" opacity="0.5">
<path d="M136.11 89.3381C136.11 113.116 116.1 132.391 91.4165 132.391C66.7331 132.391 46.7231 113.116 46.7231 89.3381C46.7231 65.5606 66.7331 46.2852 91.4165 46.2852C116.1 46.2852 136.11 65.5606 136.11 89.3381Z" fill="url(#paint6_linear_101_1473)"/>
<path d="M136.11 89.3381C136.11 113.116 116.1 132.391 91.4165 132.391C66.7331 132.391 46.7231 113.116 46.7231 89.3381C46.7231 65.5606 66.7331 46.2852 91.4165 46.2852C116.1 46.2852 136.11 65.5606 136.11 89.3381Z" fill="url(#paint7_radial_101_1473)"/>
<path d="M136.11 89.3381C136.11 113.116 116.1 132.391 91.4165 132.391C66.7331 132.391 46.7231 113.116 46.7231 89.3381C46.7231 65.5606 66.7331 46.2852 91.4165 46.2852C116.1 46.2852 136.11 65.5606 136.11 89.3381Z" fill="url(#paint8_radial_101_1473)"/>
<path d="M136.11 89.3381C136.11 113.116 116.1 132.391 91.4165 132.391C66.7331 132.391 46.7231 113.116 46.7231 89.3381C46.7231 65.5606 66.7331 46.2852 91.4165 46.2852C116.1 46.2852 136.11 65.5606 136.11 89.3381Z" fill="url(#paint9_radial_101_1473)"/>
<path d="M136.11 89.3381C136.11 113.116 116.1 132.391 91.4165 132.391C66.7331 132.391 46.7231 113.116 46.7231 89.3381C46.7231 65.5606 66.7331 46.2852 91.4165 46.2852C116.1 46.2852 136.11 65.5606 136.11 89.3381Z" fill="url(#paint10_radial_101_1473)"/>
</g>
</g>
</g>
<defs>
<linearGradient id="paint0_linear_101_1473" x1="91.4165" y1="56.1515" x2="110.543" y2="121.131" gradientUnits="userSpaceOnUse">
<stop stop-color="#A893E8"/>
<stop offset="1" stop-color="#9EA1DC"/>
</linearGradient>
<radialGradient id="paint1_radial_101_1473" cx="0" cy="0" r="1" gradientUnits="userSpaceOnUse" gradientTransform="translate(124.937 127.01) rotate(-131.918) scale(44.5997 42.9524)">
<stop stop-color="#606EF5"/>
<stop offset="1" stop-color="#909ADD" stop-opacity="0"/>
</radialGradient>
<radialGradient id="paint2_radial_101_1473" cx="0" cy="0" r="1" gradientUnits="userSpaceOnUse" gradientTransform="translate(113.763 46.2852) rotate(117.432) scale(48.5071 47.5296)">
<stop stop-color="#8874FF"/>
<stop offset="1" stop-color="#8874FF" stop-opacity="0"/>
</radialGradient>
<radialGradient id="paint3_radial_101_1473" cx="0" cy="0" r="1" gradientUnits="userSpaceOnUse" gradientTransform="translate(35.5498 42.6974) rotate(35.5872) scale(80.1468 64.2488)">
<stop stop-color="white" stop-opacity="0.79"/>
<stop offset="1" stop-color="white" stop-opacity="0"/>
</radialGradient>
<radialGradient id="paint4_radial_101_1473" cx="0" cy="0" r="1" gradientUnits="userSpaceOnUse" gradientTransform="translate(54.172 53.4607) rotate(43.929) scale(32.3213 23.4585)">
<stop stop-color="white" stop-opacity="0.49"/>
<stop offset="1" stop-color="white" stop-opacity="0"/>
</radialGradient>
<radialGradient id="paint5_radial_101_1473" cx="0" cy="0" r="1" gradientUnits="userSpaceOnUse" gradientTransform="translate(108.684 89.3381) rotate(48.8403) scale(24.6933 20.4906)">
<stop stop-color="white" stop-opacity="0.15"/>
<stop offset="1" stop-color="white" stop-opacity="0"/>
</radialGradient>
<linearGradient id="paint6_linear_101_1473" x1="91.4165" y1="56.1515" x2="110.543" y2="121.131" gradientUnits="userSpaceOnUse">
<stop stop-color="#A893E8"/>
<stop offset="1" stop-color="#9EA1DC"/>
</linearGradient>
<radialGradient id="paint7_radial_101_1473" cx="0" cy="0" r="1" gradientUnits="userSpaceOnUse" gradientTransform="translate(124.937 127.01) rotate(-131.918) scale(44.5997 42.9524)">
<stop stop-color="#606EF5"/>
<stop offset="1" stop-color="#909ADD" stop-opacity="0"/>
</radialGradient>
<radialGradient id="paint8_radial_101_1473" cx="0" cy="0" r="1" gradientUnits="userSpaceOnUse" gradientTransform="translate(113.763 46.2852) rotate(117.047) scale(56.5332 55.4162)">
<stop stop-color="#8874FF"/>
<stop offset="1" stop-color="#8874FF" stop-opacity="0"/>
</radialGradient>
<radialGradient id="paint9_radial_101_1473" cx="0" cy="0" r="1" gradientUnits="userSpaceOnUse" gradientTransform="translate(35.5498 42.6974) rotate(38.6456) scale(81.7415 65.7817)">
<stop stop-color="white" stop-opacity="0.79"/>
<stop offset="1" stop-color="white" stop-opacity="0"/>
</radialGradient>
<radialGradient id="paint10_radial_101_1473" cx="0" cy="0" r="1" gradientUnits="userSpaceOnUse" gradientTransform="translate(54.172 53.4607) rotate(42.4428) scale(46.3685 33.5886)">
<stop stop-color="white" stop-opacity="0.49"/>
<stop offset="1" stop-color="white" stop-opacity="0"/>
</radialGradient>
<clipPath id="clip0_101_1473">
<rect width="172.656" height="172.656" fill="white" transform="translate(13.6719 13.6719)"/>
</clipPath>
</defs>
</svg>
