<svg width="96" height="96" viewBox="0 0 96 96" fill="none" xmlns="http://www.w3.org/2000/svg">
<g clip-path="url(#clip0_101_1111)">
<path d="M74.4988 51.4367C71.9246 50.5034 69.0469 51.7571 68.0779 54.2368C67.861 54.794 67.4561 55.5045 66.8776 56.2707C66.0244 57.4269 64.7952 58.6529 63.4792 59.7394C62.1632 60.8261 60.746 61.7732 59.589 62.4002C56.3496 64.1554 52.8789 64.9913 49.4227 64.9913C47.9042 64.9913 46.3857 64.8242 44.9107 64.5176C42.2208 63.9465 39.5599 65.5764 38.9526 68.1675C38.3597 70.7586 40.0516 73.3218 42.7414 73.9069C44.9252 74.3806 47.1667 74.6173 49.4227 74.6173C54.5419 74.6173 59.7481 73.3775 64.5059 70.7864C66.892 69.477 69.4229 67.6799 71.7367 65.4928C72.8936 64.4061 73.9927 63.2081 74.9615 61.9126C75.9304 60.617 76.7837 59.21 77.4055 57.6359C78.3744 55.1423 77.0729 52.3701 74.4988 51.4367Z" fill="#FCA311"/>
<path d="M79.9652 42.9811C79.6616 38.7462 78.3745 34.4835 76.0607 30.555C74.0216 27.0863 71.3318 24.1469 68.2515 21.8205C65.1568 19.508 61.657 17.7945 57.9693 16.7636C55.3229 16.0253 52.5608 17.488 51.7944 20.0374C51.0279 22.5867 52.5463 25.2474 55.1929 25.9857C57.6946 26.6822 60.0519 27.8385 62.1343 29.3987C64.2168 30.959 66.01 32.9232 67.3983 35.2775C68.9745 37.9522 69.8133 40.794 70.0302 43.6498C70.2183 46.2967 72.6043 48.2887 75.352 48.1077C78.0852 47.9265 80.1533 45.6279 79.9652 42.9811Z" fill="#FCA311"/>
<path d="M44.4191 25.776C47.0945 25.1351 48.7141 22.5301 48.0489 19.9529C47.3836 17.3758 44.6794 15.8155 42.004 16.4563C39.372 17.0831 36.7834 18.0583 34.2961 19.4096C29.3358 22.1122 25.4311 25.9849 22.7847 30.4427C20.1383 34.9005 18.75 39.9573 18.75 45.1116C18.75 45.2928 18.75 45.4739 18.75 45.6549V74.8814C18.75 77.5283 20.977 79.6875 23.7392 79.6875C26.5013 79.6875 28.7284 77.5422 28.7284 74.8814V45.0837C28.7284 45.0698 28.7284 45.0421 28.7284 45.0281C28.7428 41.5872 29.6829 38.1881 31.4471 35.207C33.2259 32.198 35.8289 29.6069 39.1985 27.768C40.8904 26.8625 42.6402 26.2078 44.4191 25.776Z" fill="#FCA311"/>
<mask id="mask0_101_1111" style="mask-type:alpha" maskUnits="userSpaceOnUse" x="35" y="32" width="28" height="26">
<path d="M58.3096 53.6258C63.2409 48.8893 63.2554 41.1857 58.3385 36.4214C53.4216 31.6572 45.4244 31.6571 40.4786 36.3936C35.5473 41.13 34.8241 54.2805 37.2826 56.6488C39.7266 59.0169 53.3638 58.3622 58.3096 53.6258Z" fill="#14213D"/>
</mask>
<g mask="url(#mask0_101_1111)">
<path d="M65.3329 42.8822C65.3329 54.2954 55.7281 63.5477 43.8801 63.5477C32.032 63.5477 22.4272 54.2954 22.4272 42.8822C22.4272 31.469 32.032 22.2168 43.8801 22.2168C55.7281 22.2168 65.3329 31.469 65.3329 42.8822Z" fill="url(#paint0_linear_101_1111)"/>
<path d="M65.3329 42.8822C65.3329 54.2954 55.7281 63.5477 43.8801 63.5477C32.032 63.5477 22.4272 54.2954 22.4272 42.8822C22.4272 31.469 32.032 22.2168 43.8801 22.2168C55.7281 22.2168 65.3329 31.469 65.3329 42.8822Z" fill="url(#paint1_radial_101_1111)"/>
<path d="M65.3329 42.8822C65.3329 54.2954 55.7281 63.5477 43.8801 63.5477C32.032 63.5477 22.4272 54.2954 22.4272 42.8822C22.4272 31.469 32.032 22.2168 43.8801 22.2168C55.7281 22.2168 65.3329 31.469 65.3329 42.8822Z" fill="url(#paint2_radial_101_1111)"/>
<path d="M65.3329 42.8822C65.3329 54.2954 55.7281 63.5477 43.8801 63.5477C32.032 63.5477 22.4272 54.2954 22.4272 42.8822C22.4272 31.469 32.032 22.2168 43.8801 22.2168C55.7281 22.2168 65.3329 31.469 65.3329 42.8822Z" fill="url(#paint3_radial_101_1111)"/>
<path d="M65.3329 42.8822C65.3329 54.2954 55.7281 63.5477 43.8801 63.5477C32.032 63.5477 22.4272 54.2954 22.4272 42.8822C22.4272 31.469 32.032 22.2168 43.8801 22.2168C55.7281 22.2168 65.3329 31.469 65.3329 42.8822Z" fill="url(#paint4_radial_101_1111)"/>
<path d="M65.3329 42.8822C65.3329 54.2954 55.7281 63.5477 43.8801 63.5477C32.032 63.5477 22.4272 54.2954 22.4272 42.8822C22.4272 31.469 32.032 22.2168 43.8801 22.2168C55.7281 22.2168 65.3329 31.469 65.3329 42.8822Z" fill="url(#paint5_radial_101_1111)"/>
<g style="mix-blend-mode:soft-light" opacity="0.5">
<path d="M65.3329 42.8822C65.3329 54.2954 55.7281 63.5477 43.8801 63.5477C32.032 63.5477 22.4272 54.2954 22.4272 42.8822C22.4272 31.469 32.032 22.2168 43.8801 22.2168C55.7281 22.2168 65.3329 31.469 65.3329 42.8822Z" fill="url(#paint6_linear_101_1111)"/>
<path d="M65.3329 42.8822C65.3329 54.2954 55.7281 63.5477 43.8801 63.5477C32.032 63.5477 22.4272 54.2954 22.4272 42.8822C22.4272 31.469 32.032 22.2168 43.8801 22.2168C55.7281 22.2168 65.3329 31.469 65.3329 42.8822Z" fill="url(#paint7_radial_101_1111)"/>
<path d="M65.3329 42.8822C65.3329 54.2954 55.7281 63.5477 43.8801 63.5477C32.032 63.5477 22.4272 54.2954 22.4272 42.8822C22.4272 31.469 32.032 22.2168 43.8801 22.2168C55.7281 22.2168 65.3329 31.469 65.3329 42.8822Z" fill="url(#paint8_radial_101_1111)"/>
<path d="M65.3329 42.8822C65.3329 54.2954 55.7281 63.5477 43.8801 63.5477C32.032 63.5477 22.4272 54.2954 22.4272 42.8822C22.4272 31.469 32.032 22.2168 43.8801 22.2168C55.7281 22.2168 65.3329 31.469 65.3329 42.8822Z" fill="url(#paint9_radial_101_1111)"/>
<path d="M65.3329 42.8822C65.3329 54.2954 55.7281 63.5477 43.8801 63.5477C32.032 63.5477 22.4272 54.2954 22.4272 42.8822C22.4272 31.469 32.032 22.2168 43.8801 22.2168C55.7281 22.2168 65.3329 31.469 65.3329 42.8822Z" fill="url(#paint10_radial_101_1111)"/>
</g>
</g>
</g>
<defs>
<linearGradient id="paint0_linear_101_1111" x1="43.8801" y1="26.9526" x2="53.0606" y2="58.1427" gradientUnits="userSpaceOnUse">
<stop stop-color="#A893E8"/>
<stop offset="1" stop-color="#9EA1DC"/>
</linearGradient>
<radialGradient id="paint1_radial_101_1111" cx="0" cy="0" r="1" gradientUnits="userSpaceOnUse" gradientTransform="translate(59.9697 60.9645) rotate(-131.918) scale(21.4079 20.6172)">
<stop stop-color="#606EF5"/>
<stop offset="1" stop-color="#909ADD" stop-opacity="0"/>
</radialGradient>
<radialGradient id="paint2_radial_101_1111" cx="0" cy="0" r="1" gradientUnits="userSpaceOnUse" gradientTransform="translate(54.6065 22.2168) rotate(117.432) scale(23.2834 22.8142)">
<stop stop-color="#8874FF"/>
<stop offset="1" stop-color="#8874FF" stop-opacity="0"/>
</radialGradient>
<radialGradient id="paint3_radial_101_1111" cx="0" cy="0" r="1" gradientUnits="userSpaceOnUse" gradientTransform="translate(17.064 20.4947) rotate(35.5872) scale(38.4705 30.8394)">
<stop stop-color="white" stop-opacity="0.79"/>
<stop offset="1" stop-color="white" stop-opacity="0"/>
</radialGradient>
<radialGradient id="paint4_radial_101_1111" cx="0" cy="0" r="1" gradientUnits="userSpaceOnUse" gradientTransform="translate(26.0027 25.661) rotate(43.929) scale(15.5142 11.2601)">
<stop stop-color="white" stop-opacity="0.49"/>
<stop offset="1" stop-color="white" stop-opacity="0"/>
</radialGradient>
<radialGradient id="paint5_radial_101_1111" cx="0" cy="0" r="1" gradientUnits="userSpaceOnUse" gradientTransform="translate(52.1687 42.8822) rotate(48.8403) scale(11.8528 9.83551)">
<stop stop-color="white" stop-opacity="0.15"/>
<stop offset="1" stop-color="white" stop-opacity="0"/>
</radialGradient>
<linearGradient id="paint6_linear_101_1111" x1="43.8801" y1="26.9526" x2="53.0606" y2="58.1427" gradientUnits="userSpaceOnUse">
<stop stop-color="#A893E8"/>
<stop offset="1" stop-color="#9EA1DC"/>
</linearGradient>
<radialGradient id="paint7_radial_101_1111" cx="0" cy="0" r="1" gradientUnits="userSpaceOnUse" gradientTransform="translate(59.9697 60.9645) rotate(-131.918) scale(21.4079 20.6172)">
<stop stop-color="#606EF5"/>
<stop offset="1" stop-color="#909ADD" stop-opacity="0"/>
</radialGradient>
<radialGradient id="paint8_radial_101_1111" cx="0" cy="0" r="1" gradientUnits="userSpaceOnUse" gradientTransform="translate(54.6065 22.2168) rotate(117.047) scale(27.1359 26.5998)">
<stop stop-color="#8874FF"/>
<stop offset="1" stop-color="#8874FF" stop-opacity="0"/>
</radialGradient>
<radialGradient id="paint9_radial_101_1111" cx="0" cy="0" r="1" gradientUnits="userSpaceOnUse" gradientTransform="translate(17.064 20.4947) rotate(38.6456) scale(39.2359 31.5752)">
<stop stop-color="white" stop-opacity="0.79"/>
<stop offset="1" stop-color="white" stop-opacity="0"/>
</radialGradient>
<radialGradient id="paint10_radial_101_1111" cx="0" cy="0" r="1" gradientUnits="userSpaceOnUse" gradientTransform="translate(26.0027 25.661) rotate(42.4428) scale(22.2569 16.1225)">
<stop stop-color="white" stop-opacity="0.49"/>
<stop offset="1" stop-color="white" stop-opacity="0"/>
</radialGradient>
<clipPath id="clip0_101_1111">
<rect width="82.875" height="82.875" fill="white" transform="translate(6.5625 6.5625)"/>
</clipPath>
</defs>
</svg>
