<svg width="223" height="106" viewBox="0 0 223 106" fill="none" xmlns="http://www.w3.org/2000/svg">
<path d="M71.4768 55.7436C69.3769 54.9532 67.0294 56.0149 66.239 58.1148C66.062 58.5867 65.7317 59.1883 65.2598 59.8371C64.5638 60.8163 63.5611 61.8544 62.4876 62.7745C61.4141 63.6947 60.258 64.4969 59.3142 65.0277C56.6717 66.5141 53.8405 67.2219 51.0211 67.2219C49.7824 67.2219 48.5437 67.0804 47.3405 66.8208C45.1462 66.3372 42.9756 67.7174 42.4802 69.9116C41.9965 72.1058 43.3767 74.2764 45.5709 74.7719C47.3523 75.173 49.1808 75.3735 51.0211 75.3735C55.1971 75.3735 59.444 74.3236 63.3251 72.1294C65.2716 71.0205 67.3361 69.4987 69.2236 67.6466C70.1673 66.7265 71.0639 65.7119 71.8542 64.6148C72.6446 63.5177 73.3407 62.3262 73.8479 60.9932C74.6383 58.8816 73.5766 56.534 71.4768 55.7436Z" fill="white"/>
<path d="M75.9359 48.5829C75.6882 44.9967 74.6383 41.3869 72.7508 38.0602C71.0874 35.1227 68.8932 32.6336 66.3805 30.6635C63.856 28.7053 61.0012 27.2543 57.993 26.3813C55.8342 25.7561 53.581 26.9947 52.9557 29.1536C52.3305 31.3124 53.5692 33.5656 55.728 34.1908C57.7688 34.7806 59.6917 35.7598 61.3905 37.081C63.0892 38.4023 64.552 40.0656 65.6845 42.0593C66.9704 44.3243 67.6546 46.7308 67.8315 49.1492C67.9849 51.3906 69.9314 53.0775 72.1728 52.9241C74.4023 52.7708 76.0893 50.8243 75.9359 48.5829Z" fill="white"/>
<path d="M58.63 57.7844C62.6527 53.7735 62.6645 47.2499 58.6535 43.2154C54.6426 39.1808 48.119 39.1808 44.0845 43.1918C40.0618 47.2027 39.4719 58.3389 41.4774 60.3443C43.471 62.3498 54.5954 61.7953 58.63 57.7844Z" fill="white"/>
<path d="M46.9394 34.0139C49.1218 33.4712 50.443 31.2652 49.9004 29.0828C49.3577 26.9004 47.1517 25.5791 44.9693 26.1218C42.8223 26.6526 40.7106 27.4784 38.6816 28.6227C34.6353 30.9113 31.4501 34.1908 29.2913 37.9658C27.1325 41.7408 26 46.023 26 50.3878C26 50.5412 26 50.6946 26 50.8479V75.5976C26 77.839 27.8167 79.6676 30.0699 79.6676C32.3231 79.6676 34.1398 77.8508 34.1398 75.5976V50.376C34.1398 50.3642 34.1398 50.3407 34.1398 50.3289C34.1516 47.415 34.9184 44.5366 36.3576 42.0121C37.8086 39.464 39.932 37.2698 42.6807 35.7126C44.0609 34.934 45.4883 34.3796 46.9394 34.0139Z" fill="white"/>
<path d="M96.2737 41.3516C96.3917 41.0448 96.4507 40.7027 96.4507 40.3724V40.3134C96.4507 39.9831 96.3917 39.641 96.2737 39.3343C96.1558 39.0276 95.967 38.7327 95.7429 38.4967L95.7311 38.4849L95.7193 38.4731C95.4833 38.2372 95.1884 38.0366 94.8817 37.9069C94.5632 37.7771 94.2211 37.7181 93.8908 37.7181H92.3218C90.7646 37.7181 89.29 37.9895 87.9334 38.5439C86.5767 39.0984 85.3499 39.9359 84.2528 41.033C83.1793 42.1301 82.3535 43.357 81.799 44.7019C81.2446 46.0467 80.9615 47.5213 80.9379 49.0785V65.3345C80.9379 65.6648 80.9969 66.0069 81.1266 66.3136C81.2564 66.6203 81.4569 66.9035 81.6929 67.1394C81.9288 67.3753 82.2119 67.5759 82.5186 67.7057C82.8254 67.8354 83.1675 67.8944 83.4978 67.8944H83.5804C83.9107 67.8944 84.2528 67.8354 84.5595 67.7057C84.8662 67.5759 85.1493 67.3753 85.3853 67.1394C85.6212 66.9035 85.8218 66.6203 85.9515 66.3136C86.0813 66.0069 86.1403 65.6648 86.1403 65.3345V49.1139C86.1521 48.2409 86.3054 47.4623 86.6003 46.7427C86.8953 46.0231 87.3435 45.3625 87.9452 44.749C88.5586 44.1356 89.2192 43.6873 89.9388 43.3924C90.6584 43.0975 91.437 42.9441 92.31 42.9441H93.879C94.2211 42.9441 94.5632 42.8851 94.8699 42.7554C95.1884 42.6256 95.4716 42.4369 95.7075 42.1891C95.9552 41.9532 96.144 41.6701 96.2737 41.3516Z" fill="white"/>
<path d="M120.681 42.1419C119.219 40.6791 117.591 39.5702 115.797 38.827C114.004 38.0838 112.07 37.7181 110.005 37.7181C107.941 37.7181 105.994 38.0838 104.213 38.827C102.42 39.5702 100.792 40.6791 99.3291 42.1419C97.8663 43.6047 96.7574 45.2327 96.0142 47.0258C95.271 48.8189 94.9053 50.7536 94.9053 52.8181C94.9053 54.8825 95.271 56.829 96.0142 58.6103C96.7574 60.4034 97.8663 62.0314 99.3291 63.4942C100.792 64.957 102.42 66.0659 104.213 66.8091C106.006 67.5523 107.941 67.918 110.005 67.918C112.07 67.918 114.016 67.5523 115.797 66.8091C117.591 66.0659 119.219 64.957 120.681 63.4942C122.144 62.0314 123.253 60.4034 123.996 58.6103C124.739 56.8172 125.105 54.8825 125.105 52.8181C125.105 50.7536 124.739 48.8071 123.996 47.0258C123.241 45.2327 122.132 43.6047 120.681 42.1419ZM116.977 59.8844C116.01 60.8635 114.96 61.5831 113.804 62.0668C112.648 62.5504 111.397 62.7864 110.005 62.7864C108.625 62.7864 107.363 62.5386 106.207 62.0668C105.051 61.5831 103.989 60.8635 103.01 59.8844C102.042 58.9052 101.323 57.8435 100.851 56.6874C100.379 55.5313 100.131 54.2809 100.131 52.9124C100.131 51.5322 100.367 50.27 100.851 49.1139C101.323 47.9578 102.042 46.8961 103.01 45.9169C103.989 44.9378 105.051 44.2182 106.207 43.7345C107.363 43.2508 108.625 43.0149 110.005 43.0149C111.397 43.0149 112.66 43.2626 113.804 43.7345C114.96 44.2182 116.01 44.9378 116.965 45.9169C117.944 46.8961 118.664 47.9578 119.148 49.1257C119.631 50.2817 119.867 51.544 119.867 52.9242C119.867 54.2927 119.62 55.5431 119.148 56.6992C118.676 57.8317 117.956 58.8934 116.977 59.8844Z" fill="white"/>
<path d="M152.639 42.1419C151.176 40.6791 149.548 39.5702 147.755 38.827C145.962 38.0838 144.027 37.7181 141.963 37.7181C139.898 37.7181 137.952 38.0838 136.171 38.8152C134.389 39.5466 132.761 40.6555 131.31 42.1065C129.847 43.5694 128.739 45.1973 127.995 46.9786C127.252 48.76 126.875 50.6946 126.863 52.7591V76.6594C126.863 76.9897 126.922 77.3319 127.052 77.6386C127.181 77.9453 127.382 78.2284 127.618 78.4644C127.854 78.7003 128.137 78.9008 128.444 79.0306C128.75 79.1604 129.092 79.2194 129.423 79.2194H129.505C129.836 79.2194 130.178 79.1604 130.485 79.0306C130.791 78.9008 131.074 78.7003 131.31 78.4644C131.546 78.2284 131.747 77.9453 131.877 77.6386C132.006 77.3319 132.065 76.9897 132.065 76.6594V64.1194C133.434 65.1693 134.802 66.0187 136.194 66.6321C138.093 67.4815 140.016 67.9062 141.939 67.9062C144.004 67.9062 145.95 67.5405 147.731 66.7973C149.525 66.0541 151.153 64.9452 152.615 63.4824C154.078 62.0196 155.187 60.3916 155.93 58.5985C156.673 56.8054 157.039 54.8707 157.039 52.8063C157.039 50.7418 156.673 48.7953 155.93 47.014C155.211 45.2327 154.102 43.6047 152.639 42.1419ZM148.935 59.7428C147.967 60.7219 146.917 61.4415 145.773 61.9252C144.617 62.4089 143.367 62.6448 141.975 62.6448C140.594 62.6448 139.332 62.3971 138.176 61.9252C137.02 61.4415 135.958 60.7219 134.979 59.7428C134.012 58.7637 133.292 57.7019 132.82 56.5459C132.348 55.3898 132.101 54.1393 132.101 52.7709C132.101 51.3906 132.337 50.1284 132.82 48.9723C133.292 47.8162 134.012 46.7545 134.979 45.7754C135.958 44.808 137.02 44.0884 138.176 43.6165C139.332 43.1447 140.594 42.8969 141.975 42.8969C143.355 42.8969 144.617 43.1329 145.761 43.6165C146.917 44.0884 147.967 44.808 148.947 45.7754C149.926 46.7545 150.645 47.8162 151.129 48.9841C151.613 50.1402 151.849 51.4024 151.849 52.7827C151.849 54.1511 151.601 55.4016 151.129 56.5577C150.645 57.6902 149.926 58.7519 148.935 59.7428Z" fill="white"/>
<path d="M188.525 56.1684C188.442 55.9206 188.324 55.6965 188.183 55.4841L188.171 55.4723L188.159 55.4605C187.911 55.1302 187.605 54.8471 187.239 54.6584C186.873 54.4696 186.46 54.387 186.048 54.387C185.776 54.387 185.505 54.4224 185.245 54.4932C184.856 54.5994 184.49 54.8117 184.195 55.0949C183.901 55.378 183.7 55.7437 183.558 56.133C183.216 57.1239 182.756 57.9969 182.178 58.7873C181.6 59.5776 180.892 60.2737 180.055 60.8871C179.182 61.5241 178.262 61.996 177.294 62.3145C176.327 62.633 175.312 62.7864 174.239 62.7864C172.623 62.7864 171.148 62.4089 169.756 61.6539C168.635 61.0404 167.574 60.1793 166.559 59.0468C168.801 58.0441 172.139 56.5459 176.563 54.5404C180.751 52.6529 184.125 51.1311 186.696 49.975H186.708H186.72C187.015 49.8335 187.298 49.6447 187.522 49.397C187.746 49.161 187.923 48.8661 188.041 48.5594V48.5476C188.147 48.2645 188.206 47.9578 188.206 47.6511C188.206 47.2854 188.112 46.9079 187.959 46.5775V46.5657C187.357 45.2563 186.602 44.0648 185.694 43.0031C184.785 41.9414 183.712 41.0094 182.497 40.2073C181.258 39.3933 179.937 38.7798 178.557 38.367C177.176 37.9541 175.737 37.7535 174.239 37.7535C172.174 37.7535 170.228 38.1192 168.447 38.8624C166.654 39.6056 165.026 40.7145 163.563 42.1773C162.1 43.6401 160.991 45.2681 160.248 47.0612C159.505 48.8543 159.139 50.789 159.139 52.8535C159.139 54.9179 159.505 56.8644 160.248 58.6457C160.991 60.4388 162.1 62.0668 163.563 63.5296C165.026 64.9924 166.654 66.1013 168.447 66.8445C170.24 67.5877 172.174 67.9534 174.239 67.9534C175.843 67.9534 177.4 67.7174 178.875 67.2456C180.35 66.7737 181.753 66.0659 183.075 65.1221C184.361 64.202 185.458 63.1285 186.354 61.9134C187.251 60.7101 187.97 59.3535 188.478 57.8789V57.8671C188.584 57.584 188.643 57.2773 188.643 56.9705C188.643 56.6638 188.607 56.4043 188.525 56.1684ZM164.424 53.8798C164.377 53.4551 164.365 53.1248 164.365 52.9006C164.365 51.5204 164.601 50.2582 165.085 49.1021C165.556 47.946 166.276 46.8843 167.243 45.9051C168.223 44.926 169.284 44.2064 170.44 43.7227C171.596 43.239 172.859 43.0031 174.239 43.0031C175.772 43.0031 177.2 43.357 178.568 44.0766C179.654 44.6429 180.692 45.445 181.706 46.495L164.471 54.2927C164.448 54.1393 164.436 54.0095 164.424 53.8798Z" fill="white"/>
<path d="M196.83 28.0093C196.7 27.6908 196.511 27.4077 196.264 27.1718L196.252 27.16L196.24 27.1482C196.004 26.924 195.721 26.7353 195.414 26.6173C195.107 26.4993 194.777 26.4404 194.447 26.4404H194.364C194.034 26.4404 193.704 26.4993 193.397 26.6173C193.09 26.7353 192.807 26.924 192.571 27.1482L192.559 27.16L192.548 27.1718C192.312 27.4077 192.111 27.7026 191.981 28.0093C191.852 28.3279 191.793 28.67 191.793 29.0003V65.3463C191.793 65.6766 191.852 66.0187 191.981 66.3254C192.111 66.6321 192.312 66.9153 192.548 67.1512C192.783 67.3871 193.067 67.5877 193.373 67.7174C193.68 67.8472 194.022 67.9062 194.352 67.9062H194.435C194.765 67.9062 195.107 67.8472 195.414 67.7174C195.721 67.5877 196.004 67.3871 196.24 67.1512C196.476 66.9153 196.676 66.6321 196.806 66.3254C196.936 66.0187 196.995 65.6766 196.995 65.3463V29.0003C197.019 28.6582 196.96 28.3279 196.83 28.0093Z" fill="white"/>
</svg>
