<svg width="223" height="106" viewBox="0 0 223 106" fill="none" xmlns="http://www.w3.org/2000/svg">
<path d="M71.4768 55.7436C69.3769 54.9532 67.0294 56.0149 66.239 58.1147C66.062 58.5866 65.7317 59.1883 65.2598 59.8371C64.5638 60.8162 63.5611 61.8543 62.4876 62.7745C61.4141 63.6946 60.258 64.4968 59.3142 65.0277C56.6718 66.5141 53.8405 67.2219 51.0211 67.2219C49.7824 67.2219 48.5437 67.0803 47.3405 66.8208C45.1463 66.3371 42.9756 67.7174 42.4802 69.9116C41.9965 72.1058 43.3767 74.2764 45.5709 74.7719C47.3523 75.1729 49.1808 75.3735 51.0211 75.3735C55.1972 75.3735 59.444 74.3236 63.3252 72.1294C65.2716 71.0205 67.3361 69.4987 69.2236 67.6466C70.1673 66.7264 71.0639 65.7119 71.8543 64.6148C72.6447 63.5177 73.3407 62.3262 73.8479 60.9932C74.6383 58.8815 73.5766 56.534 71.4768 55.7436Z" fill="black"/>
<path d="M75.9359 48.5711C75.6882 44.9849 74.6383 41.3751 72.7508 38.0483C71.0874 35.1109 68.8932 32.6218 66.3805 30.6517C63.856 28.6935 61.0011 27.2425 57.993 26.3695C55.8341 25.7443 53.5809 26.9829 52.9557 29.1417C52.3305 31.3006 53.5692 33.5538 55.728 34.179C57.7688 34.7688 59.6917 35.748 61.3904 37.0692C63.0892 38.3905 64.552 40.0538 65.6845 42.0475C66.9703 44.3125 67.6546 46.719 67.8315 49.1374C67.9849 51.3788 69.9313 53.0657 72.1727 52.9123C74.4023 52.759 76.0893 50.8125 75.9359 48.5711Z" fill="black"/>
<path d="M58.63 57.7726C62.6527 53.7617 62.6645 47.2381 58.6536 43.2036C54.6426 39.1691 48.119 39.1691 44.0845 43.18C40.0618 47.1909 39.4719 58.3271 41.4774 60.3326C43.4829 62.338 54.5955 61.7954 58.63 57.7726Z" fill="black"/>
<path d="M46.9394 34.0139C49.1218 33.4712 50.443 31.2652 49.9004 29.0828C49.3577 26.9004 47.1517 25.5791 44.9693 26.1218C42.8223 26.6526 40.7106 27.4784 38.6816 28.6227C34.6353 30.9113 31.4501 34.1908 29.2913 37.9658C27.1325 41.7408 26 46.023 26 50.3878C26 50.5412 26 50.6946 26 50.8479V75.5976C26 77.839 27.8167 79.6676 30.0699 79.6676C32.3231 79.6676 34.1398 77.8508 34.1398 75.5976V50.3642C34.1398 50.3525 34.1398 50.3289 34.1398 50.3171C34.1516 47.4032 34.9184 44.5248 36.3576 42.0003C37.8086 39.4522 39.932 37.258 42.6807 35.7008C44.0609 34.934 45.4883 34.3796 46.9394 34.0139Z" fill="black"/>
<path d="M96.2737 41.3514C96.3917 41.0447 96.4507 40.7026 96.4507 40.3723V40.3133C96.4507 39.983 96.3917 39.6409 96.2737 39.3342C96.1558 39.0274 95.967 38.7325 95.7429 38.4966L95.7311 38.4848L95.7193 38.473C95.4833 38.2371 95.1884 38.0365 94.8817 37.9067C94.5632 37.777 94.2211 37.718 93.8908 37.718H92.3218C90.7646 37.718 89.29 37.9893 87.9334 38.5438C86.5767 39.0982 85.3499 39.9358 84.2528 41.0329C83.1793 42.13 82.3535 43.3569 81.799 44.7017C81.2446 46.0465 80.9615 47.5211 80.9379 49.0783V65.3461C80.9379 65.6765 80.9969 66.0186 81.1266 66.3253C81.2564 66.632 81.4569 66.9151 81.6929 67.1511C81.9288 67.387 82.2119 67.5875 82.5186 67.7173C82.8254 67.8471 83.1675 67.9061 83.4978 67.9061H83.5804C83.9107 67.9061 84.2528 67.8471 84.5595 67.7173C84.8662 67.5875 85.1493 67.387 85.3853 67.1511C85.6212 66.9151 85.8218 66.632 85.9515 66.3253C86.0813 66.0186 86.1403 65.6765 86.1403 65.3461V49.1137C86.1521 48.2408 86.3054 47.4622 86.6003 46.7426C86.8953 46.0229 87.3435 45.3623 87.9452 44.7489C88.5586 44.1355 89.2192 43.6872 89.9388 43.3923C90.6584 43.0973 91.437 42.944 92.31 42.944H93.879C94.2211 42.944 94.5632 42.885 94.8699 42.7552C95.1884 42.6255 95.4716 42.4367 95.7075 42.189C95.9552 41.9413 96.144 41.6581 96.2737 41.3514Z" fill="black"/>
<path d="M120.681 42.1418C119.219 40.679 117.591 39.5701 115.797 38.8269C114.004 38.0837 112.07 37.718 110.005 37.718C107.941 37.718 105.994 38.0837 104.213 38.8269C102.42 39.5701 100.792 40.679 99.3291 42.1418C97.8663 43.6046 96.7574 45.2326 96.0142 47.0257C95.271 48.8188 94.9053 50.7535 94.9053 52.8179C94.9053 54.8824 95.271 56.8288 96.0142 58.6102C96.7574 60.4033 97.8663 62.0312 99.3291 63.494C100.792 64.9569 102.42 66.0658 104.213 66.8089C106.006 67.5521 107.941 67.9179 110.005 67.9179C112.07 67.9179 114.016 67.5521 115.797 66.8089C117.591 66.0658 119.219 64.9569 120.681 63.494C122.144 62.0312 123.253 60.4033 123.996 58.6102C124.739 56.817 125.105 54.8824 125.105 52.8179C125.105 50.7535 124.739 48.807 123.996 47.0257C123.241 45.2326 122.132 43.6046 120.681 42.1418ZM116.977 59.8724C116.01 60.8516 114.96 61.5712 113.804 62.0548C112.648 62.5385 111.397 62.7744 110.005 62.7744C108.625 62.7744 107.363 62.5267 106.207 62.0548C105.051 61.5712 103.989 60.8516 103.01 59.8724C102.042 58.8933 101.323 57.8316 100.851 56.6755C100.379 55.5194 100.131 54.2689 100.131 52.9005C100.131 51.5203 100.367 50.258 100.851 49.1019C101.323 47.9458 102.042 46.8841 103.01 45.905C103.989 44.9258 105.051 44.2062 106.207 43.7226C107.363 43.2389 108.625 43.003 110.005 43.003C111.397 43.003 112.66 43.2507 113.804 43.7226C114.96 44.2062 116.01 44.9258 116.965 45.905C117.944 46.8841 118.664 47.9458 119.148 49.1137C119.631 50.2698 119.867 51.5321 119.867 52.9123C119.867 54.2807 119.62 55.5312 119.148 56.6873C118.676 57.8316 117.956 58.8933 116.977 59.8724Z" fill="black"/>
<path d="M152.639 42.1418C151.176 40.679 149.548 39.5701 147.755 38.8269C145.962 38.0837 144.027 37.718 141.963 37.718C139.898 37.718 137.952 38.0837 136.171 38.8151C134.389 39.5465 132.761 40.6554 131.31 42.1064C129.847 43.5692 128.739 45.1972 127.995 46.9785C127.252 48.7598 126.875 50.6945 126.863 52.7589V76.6593C126.863 76.9896 126.922 77.3317 127.052 77.6384C127.181 77.9451 127.382 78.2283 127.618 78.4642C127.854 78.7001 128.137 78.9007 128.444 79.0305C128.75 79.1602 129.093 79.2192 129.423 79.2192H129.505C129.836 79.2192 130.178 79.1602 130.485 79.0305C130.791 78.9007 131.074 78.7001 131.31 78.4642C131.546 78.2283 131.747 77.9451 131.877 77.6384C132.006 77.3317 132.065 76.9896 132.065 76.6593V64.1193C133.434 65.1692 134.802 66.0186 136.194 66.632C138.093 67.4814 140.016 67.9061 141.939 67.9061C144.004 67.9061 145.95 67.5404 147.731 66.7972C149.525 66.054 151.153 64.9451 152.615 63.4822C154.078 62.0194 155.187 60.3915 155.93 58.5984C156.673 56.8052 157.039 54.8706 157.039 52.8061C157.039 50.7417 156.673 48.7952 155.93 47.0139C155.211 45.2326 154.102 43.6046 152.639 42.1418ZM148.935 59.7427C147.967 60.7218 146.918 61.4414 145.773 61.9251C144.617 62.4087 143.367 62.6447 141.975 62.6447C140.594 62.6447 139.332 62.3969 138.176 61.9251C137.02 61.4414 135.958 60.7218 134.979 59.7427C134.012 58.7635 133.292 57.7018 132.82 56.5457C132.348 55.3896 132.101 54.1392 132.101 52.7707C132.101 51.3905 132.337 50.1282 132.82 48.9722C133.292 47.8161 134.012 46.7544 134.979 45.7752C135.958 44.8079 137.02 44.0883 138.176 43.6164C139.332 43.1445 140.594 42.8968 141.975 42.8968C143.355 42.8968 144.617 43.1327 145.761 43.6164C146.918 44.0883 147.967 44.8079 148.947 45.7752C149.926 46.7544 150.645 47.8161 151.129 48.984C151.613 50.14 151.849 51.4023 151.849 52.7825C151.849 54.151 151.601 55.4014 151.129 56.5575C150.645 57.69 149.926 58.7517 148.935 59.7427Z" fill="black"/>
<path d="M188.525 56.1564C188.442 55.9087 188.324 55.6845 188.183 55.4722L188.171 55.4604L188.159 55.4486C187.911 55.1183 187.605 54.8352 187.239 54.6464C186.873 54.4577 186.46 54.3751 186.048 54.3751C185.776 54.3751 185.505 54.4105 185.245 54.4813C184.856 54.5874 184.49 54.7998 184.195 55.0829C183.901 55.366 183.7 55.7317 183.558 56.121C183.216 57.112 182.756 57.9849 182.178 58.7753C181.6 59.5657 180.892 60.2617 180.055 60.8752C179.182 61.5122 178.262 61.9841 177.294 62.3026C176.327 62.6211 175.312 62.7744 174.239 62.7744C172.623 62.7744 171.148 62.3969 169.756 61.6419C168.635 61.0285 167.574 60.1673 166.559 59.0348C168.801 58.0321 172.139 56.5339 176.563 54.5285C180.751 52.641 184.125 51.1192 186.696 49.9631H186.708H186.72C187.015 49.8215 187.298 49.6328 187.522 49.385C187.746 49.1491 187.923 48.8542 188.041 48.5475V48.5357C188.147 48.2526 188.206 47.9458 188.206 47.6391C188.206 47.2734 188.112 46.8959 187.959 46.5656V46.5538C187.357 45.2444 186.602 44.0529 185.694 42.9912C184.785 41.9295 183.712 40.9975 182.497 40.1953C181.258 39.3813 179.937 38.7679 178.557 38.355C177.176 37.9421 175.737 37.7416 174.239 37.7416C172.174 37.7416 170.228 38.1073 168.447 38.8505C166.654 39.5937 165.026 40.7026 163.563 42.1654C162.1 43.6282 160.991 45.2562 160.248 47.0493C159.505 48.8424 159.139 50.7771 159.139 52.8415C159.139 54.906 159.505 56.8524 160.248 58.6338C160.991 60.4269 162.1 62.0548 163.563 63.5176C165.026 64.9804 166.654 66.0893 168.447 66.8325C170.24 67.5757 172.174 67.9414 174.239 67.9414C175.843 67.9414 177.4 67.7055 178.875 67.2336C180.35 66.7618 181.753 66.054 183.075 65.1102C184.361 64.1901 185.458 63.1165 186.354 61.9015C187.251 60.6982 187.97 59.3416 188.478 57.867V57.8552C188.584 57.572 188.643 57.2653 188.643 56.9586C188.643 56.6519 188.607 56.4042 188.525 56.1564ZM164.424 53.8796C164.377 53.4549 164.365 53.1246 164.365 52.9005C164.365 51.5203 164.601 50.258 165.085 49.1019C165.556 47.9458 166.276 46.8841 167.243 45.905C168.223 44.9259 169.284 44.2062 170.44 43.7226C171.596 43.2389 172.859 43.003 174.239 43.003C175.772 43.003 177.2 43.3569 178.568 44.0765C179.654 44.6427 180.692 45.4449 181.706 46.4948L164.471 54.2925C164.448 54.1274 164.436 53.9976 164.424 53.8796Z" fill="black"/>
<path d="M196.83 27.9974C196.7 27.6789 196.511 27.3958 196.264 27.1599L196.252 27.1481L196.24 27.1363C196.004 26.9121 195.721 26.7234 195.414 26.6054C195.107 26.4874 194.777 26.4285 194.447 26.4285H194.364C194.034 26.4285 193.704 26.4874 193.397 26.6054C193.09 26.7234 192.807 26.9121 192.571 27.1363L192.559 27.1481L192.548 27.1599C192.312 27.3958 192.111 27.6907 191.981 27.9974C191.852 28.3159 191.793 28.6581 191.793 28.9884V65.3462C191.793 65.6765 191.852 66.0186 191.981 66.3253C192.111 66.632 192.312 66.9152 192.548 67.1511C192.784 67.387 193.067 67.5876 193.373 67.7173C193.68 67.8471 194.022 67.9061 194.352 67.9061H194.435C194.765 67.9061 195.107 67.8471 195.414 67.7173C195.721 67.5876 196.004 67.387 196.24 67.1511C196.476 66.9152 196.676 66.632 196.806 66.3253C196.936 66.0186 196.995 65.6765 196.995 65.3462V29.0002C197.019 28.6581 196.96 28.3159 196.83 27.9974Z" fill="black"/>
</svg>
