<svg width="512" height="512" viewBox="0 0 512 512" fill="none" xmlns="http://www.w3.org/2000/svg">
<g clip-path="url(#clip0)">
<rect width="512" height="512" fill="#FCA311"/>
<path d="M387.229 274.635C373.767 269.562 358.746 276.367 353.686 289.829C352.572 292.823 350.456 296.733 347.45 300.866C342.971 307.102 336.561 313.808 329.669 319.685C322.802 325.575 315.416 330.697 309.377 334.112C292.501 343.664 274.337 348.143 256.297 348.143C248.353 348.143 240.459 347.265 232.738 345.545C218.695 342.415 204.787 351.261 201.657 365.305C198.527 379.348 207.373 393.256 221.417 396.386C232.813 398.923 244.518 400.222 256.284 400.222C282.998 400.234 310.194 393.491 335.027 379.423H335.039C347.474 372.345 360.689 362.583 372.79 350.766C378.828 344.84 384.557 338.406 389.654 331.365C394.727 324.325 399.194 316.703 402.423 308.166C407.496 294.728 400.691 279.708 387.229 274.635Z" fill="white"/>
<path d="M415.761 228.78C414.141 205.791 407.471 182.715 395.383 161.396C384.717 142.564 370.711 126.627 354.564 114.069C338.417 101.497 320.142 92.2794 300.852 86.6744C287.044 82.6655 272.592 90.5967 268.571 104.417C264.562 118.226 272.493 132.678 286.314 136.699C299.38 140.498 311.716 146.734 322.567 155.184C333.418 163.635 342.81 174.289 350.06 187.082C358.264 201.571 362.693 216.988 363.807 232.479C364.821 246.832 377.281 257.634 391.622 256.619C405.974 255.58 416.776 243.12 415.761 228.78Z" fill="white"/>
<path d="M304.972 287.676C330.758 261.989 330.832 220.23 305.121 194.444C279.41 168.634 237.675 168.584 211.877 194.283C186.091 219.995 182.355 291.264 195.173 304.07C207.98 316.889 279.175 313.399 304.972 287.676Z" fill="#14213D"/>
<path d="M230.165 135.535C244.122 132.059 252.61 117.916 249.133 103.959C245.656 90.0023 231.514 81.5144 217.557 84.9912C203.835 88.4062 190.274 93.7019 177.332 101.039C151.41 115.714 131.032 136.686 117.248 160.876C103.452 185.065 96.1764 212.484 96.1641 240.373C96.1641 241.35 96.1764 242.328 96.1888 243.318V401.743C96.1888 416.121 107.844 427.789 122.234 427.789C136.624 427.789 148.28 416.133 148.28 401.743V240.249C148.28 240.138 148.267 240.039 148.267 239.927C148.342 221.294 153.254 202.858 162.484 186.686C171.801 170.366 185.387 156.347 202.994 146.362C211.729 141.425 220.836 137.862 230.165 135.535Z" fill="#14213D"/>
</g>
<defs>
<clipPath id="clip0">
<rect width="512" height="512" fill="white"/>
</clipPath>
</defs>
</svg>
