<svg width="512" height="512" viewBox="0 0 512 512" fill="none" xmlns="http://www.w3.org/2000/svg">
<rect width="512" height="512" fill="#050505"/>
<g clip-path="url(#clip0_101_380)">
<path d="M397.327 274.329C383.598 269.351 368.25 276.037 363.083 289.263C361.925 292.234 359.766 296.023 356.681 300.11C352.13 306.276 345.575 312.815 338.556 318.61C331.537 324.405 323.979 329.457 317.808 332.8C300.532 342.162 282.021 346.619 263.588 346.619C255.489 346.619 247.391 345.728 239.524 344.093C225.178 341.048 210.987 349.74 207.748 363.559C204.585 377.378 213.609 391.049 227.955 394.17C239.601 396.696 251.556 397.958 263.588 397.958C290.891 397.958 318.657 391.346 344.032 377.527C356.758 370.543 370.256 360.959 382.596 349.294C388.766 343.499 394.628 337.109 399.795 330.2C404.963 323.29 409.514 315.786 412.83 307.391C417.997 294.092 411.056 279.307 397.327 274.329Z" fill="#FCA311"/>
<path d="M426.481 229.231C424.862 206.645 417.997 183.91 405.657 162.959C394.782 144.459 380.436 128.782 364.008 116.374C347.503 104.041 328.837 94.9026 309.17 89.4044C295.055 85.4669 280.324 93.2676 276.236 106.864C272.149 120.461 280.247 134.651 294.362 138.589C307.705 142.304 320.276 148.471 331.383 156.792C342.489 165.113 352.053 175.589 359.457 188.145C367.864 202.41 372.337 217.566 373.495 232.798C374.497 246.914 387.223 257.538 401.877 256.573C416.454 255.606 427.484 243.347 426.481 229.231Z" fill="#FCA311"/>
<path d="M236.902 137.472C251.17 134.054 259.808 120.16 256.261 106.416C252.713 92.6707 238.29 84.3491 224.021 87.7671C209.984 91.1101 196.178 96.311 182.912 103.518C156.458 117.932 135.633 138.586 121.519 162.361C107.404 186.136 100 213.106 100 240.595C100 241.561 100 242.528 100 243.493V399.368C100 413.484 111.878 425 126.609 425C141.34 425 153.218 413.558 153.218 399.368V240.447C153.218 240.372 153.218 240.224 153.218 240.15C153.295 221.798 158.309 203.67 167.718 187.77C177.205 171.722 191.087 157.903 209.058 148.096C218.082 143.267 227.415 139.775 236.902 137.472Z" fill="#FCA311"/>
<mask id="mask0_101_380" style="mask-type:alpha" maskUnits="userSpaceOnUse" x="191" y="175" width="140" height="135">
<path d="M310.985 286.008C337.286 260.747 337.363 219.661 311.139 194.251C284.916 168.842 242.264 168.842 215.887 194.103C189.586 219.364 185.729 289.5 198.841 302.131C211.876 314.761 284.608 311.269 310.985 286.008Z" fill="#14213D"/>
</mask>
<g mask="url(#mask0_101_380)">
<path d="M348.444 228.707C348.444 289.577 297.218 338.923 234.029 338.923C170.839 338.923 119.614 289.577 119.614 228.707C119.614 167.836 170.839 118.491 234.029 118.491C297.218 118.491 348.444 167.836 348.444 228.707Z" fill="url(#paint0_linear_101_380)"/>
<path d="M348.444 228.707C348.444 289.577 297.218 338.923 234.029 338.923C170.839 338.923 119.614 289.577 119.614 228.707C119.614 167.836 170.839 118.491 234.029 118.491C297.218 118.491 348.444 167.836 348.444 228.707Z" fill="url(#paint1_radial_101_380)"/>
<path d="M348.444 228.707C348.444 289.577 297.218 338.923 234.029 338.923C170.839 338.923 119.614 289.577 119.614 228.707C119.614 167.836 170.839 118.491 234.029 118.491C297.218 118.491 348.444 167.836 348.444 228.707Z" fill="url(#paint2_radial_101_380)"/>
<path d="M348.444 228.707C348.444 289.577 297.218 338.923 234.029 338.923C170.839 338.923 119.614 289.577 119.614 228.707C119.614 167.836 170.839 118.491 234.029 118.491C297.218 118.491 348.444 167.836 348.444 228.707Z" fill="url(#paint3_radial_101_380)"/>
<path d="M348.444 228.707C348.444 289.577 297.218 338.923 234.029 338.923C170.839 338.923 119.614 289.577 119.614 228.707C119.614 167.836 170.839 118.491 234.029 118.491C297.218 118.491 348.444 167.836 348.444 228.707Z" fill="url(#paint4_radial_101_380)"/>
<path d="M348.444 228.707C348.444 289.577 297.218 338.923 234.029 338.923C170.839 338.923 119.614 289.577 119.614 228.707C119.614 167.836 170.839 118.491 234.029 118.491C297.218 118.491 348.444 167.836 348.444 228.707Z" fill="url(#paint5_radial_101_380)"/>
<g style="mix-blend-mode:soft-light" opacity="0.5">
<path d="M348.444 228.707C348.444 289.577 297.218 338.923 234.029 338.923C170.839 338.923 119.614 289.577 119.614 228.707C119.614 167.836 170.839 118.491 234.029 118.491C297.218 118.491 348.444 167.836 348.444 228.707Z" fill="url(#paint6_linear_101_380)"/>
<path d="M348.444 228.707C348.444 289.577 297.218 338.923 234.029 338.923C170.839 338.923 119.614 289.577 119.614 228.707C119.614 167.836 170.839 118.491 234.029 118.491C297.218 118.491 348.444 167.836 348.444 228.707Z" fill="url(#paint7_radial_101_380)"/>
<path d="M348.444 228.707C348.444 289.577 297.218 338.923 234.029 338.923C170.839 338.923 119.614 289.577 119.614 228.707C119.614 167.836 170.839 118.491 234.029 118.491C297.218 118.491 348.444 167.836 348.444 228.707Z" fill="url(#paint8_radial_101_380)"/>
<path d="M348.444 228.707C348.444 289.577 297.218 338.923 234.029 338.923C170.839 338.923 119.614 289.577 119.614 228.707C119.614 167.836 170.839 118.491 234.029 118.491C297.218 118.491 348.444 167.836 348.444 228.707Z" fill="url(#paint9_radial_101_380)"/>
<path d="M348.444 228.707C348.444 289.577 297.218 338.923 234.029 338.923C170.839 338.923 119.614 289.577 119.614 228.707C119.614 167.836 170.839 118.491 234.029 118.491C297.218 118.491 348.444 167.836 348.444 228.707Z" fill="url(#paint10_radial_101_380)"/>
</g>
</g>
</g>
<defs>
<linearGradient id="paint0_linear_101_380" x1="234.029" y1="143.749" x2="282.992" y2="310.096" gradientUnits="userSpaceOnUse">
<stop stop-color="#A893E8"/>
<stop offset="1" stop-color="#9EA1DC"/>
</linearGradient>
<radialGradient id="paint1_radial_101_380" cx="0" cy="0" r="1" gradientUnits="userSpaceOnUse" gradientTransform="translate(319.84 325.146) rotate(-131.918) scale(114.175 109.958)">
<stop stop-color="#606EF5"/>
<stop offset="1" stop-color="#909ADD" stop-opacity="0"/>
</radialGradient>
<radialGradient id="paint2_radial_101_380" cx="0" cy="0" r="1" gradientUnits="userSpaceOnUse" gradientTransform="translate(291.236 118.491) rotate(117.432) scale(124.178 121.676)">
<stop stop-color="#8874FF"/>
<stop offset="1" stop-color="#8874FF" stop-opacity="0"/>
</radialGradient>
<radialGradient id="paint3_radial_101_380" cx="0" cy="0" r="1" gradientUnits="userSpaceOnUse" gradientTransform="translate(91.01 109.307) rotate(35.5872) scale(205.176 164.477)">
<stop stop-color="white" stop-opacity="0.79"/>
<stop offset="1" stop-color="white" stop-opacity="0"/>
</radialGradient>
<radialGradient id="paint4_radial_101_380" cx="0" cy="0" r="1" gradientUnits="userSpaceOnUse" gradientTransform="translate(138.683 136.86) rotate(43.929) scale(82.7425 60.0537)">
<stop stop-color="white" stop-opacity="0.49"/>
<stop offset="1" stop-color="white" stop-opacity="0"/>
</radialGradient>
<radialGradient id="paint5_radial_101_380" cx="0" cy="0" r="1" gradientUnits="userSpaceOnUse" gradientTransform="translate(278.235 228.707) rotate(48.8403) scale(63.2149 52.456)">
<stop stop-color="white" stop-opacity="0.15"/>
<stop offset="1" stop-color="white" stop-opacity="0"/>
</radialGradient>
<linearGradient id="paint6_linear_101_380" x1="234.029" y1="143.749" x2="282.992" y2="310.096" gradientUnits="userSpaceOnUse">
<stop stop-color="#A893E8"/>
<stop offset="1" stop-color="#9EA1DC"/>
</linearGradient>
<radialGradient id="paint7_radial_101_380" cx="0" cy="0" r="1" gradientUnits="userSpaceOnUse" gradientTransform="translate(319.84 325.146) rotate(-131.918) scale(114.175 109.958)">
<stop stop-color="#606EF5"/>
<stop offset="1" stop-color="#909ADD" stop-opacity="0"/>
</radialGradient>
<radialGradient id="paint8_radial_101_380" cx="0" cy="0" r="1" gradientUnits="userSpaceOnUse" gradientTransform="translate(291.236 118.491) rotate(117.047) scale(144.725 141.865)">
<stop stop-color="#8874FF"/>
<stop offset="1" stop-color="#8874FF" stop-opacity="0"/>
</radialGradient>
<radialGradient id="paint9_radial_101_380" cx="0" cy="0" r="1" gradientUnits="userSpaceOnUse" gradientTransform="translate(91.01 109.307) rotate(38.6456) scale(209.258 168.401)">
<stop stop-color="white" stop-opacity="0.79"/>
<stop offset="1" stop-color="white" stop-opacity="0"/>
</radialGradient>
<radialGradient id="paint10_radial_101_380" cx="0" cy="0" r="1" gradientUnits="userSpaceOnUse" gradientTransform="translate(138.683 136.86) rotate(42.4428) scale(118.703 85.9868)">
<stop stop-color="white" stop-opacity="0.49"/>
<stop offset="1" stop-color="white" stop-opacity="0"/>
</radialGradient>
<clipPath id="clip0_101_380">
<rect width="442" height="442" fill="white" transform="translate(35 35)"/>
</clipPath>
</defs>
</svg>
