<svg width="601" height="601" viewBox="0 0 601 601" fill="none" xmlns="http://www.w3.org/2000/svg">
<circle cx="300.5" cy="300.5" r="300.5" fill="#050505"/>
<g clip-path="url(#clip0_101_728)">
<path d="M466.394 322.014C450.278 316.171 432.262 324.02 426.196 339.544C424.838 343.032 422.303 347.48 418.682 352.277C413.34 359.515 405.645 367.19 397.406 373.992C389.168 380.795 380.295 386.725 373.052 390.65C352.772 401.639 331.044 406.871 309.407 406.871C299.9 406.871 290.394 405.825 281.16 403.906C264.32 400.331 247.662 410.534 243.86 426.756C240.148 442.977 250.74 459.024 267.579 462.687C281.251 465.652 295.283 467.135 309.407 467.135C341.456 467.135 374.048 459.373 403.834 443.152C418.772 434.954 434.616 423.703 449.102 410.011C456.344 403.208 463.225 395.708 469.29 387.597C475.356 379.487 480.698 370.678 484.591 360.824C490.657 345.213 482.509 327.858 466.394 322.014Z" fill="#FCA311"/>
<path d="M500.616 269.077C498.715 242.565 490.657 215.879 476.172 191.285C463.406 169.569 446.567 151.167 427.283 136.603C407.909 122.126 385.999 111.399 362.912 104.945C346.345 100.323 329.052 109.48 324.254 125.44C319.456 141.4 328.962 158.057 345.53 162.679C361.193 167.04 375.95 174.279 388.986 184.046C402.024 193.814 413.25 206.111 421.941 220.85C431.809 237.594 437.06 255.385 438.419 273.264C439.596 289.834 454.534 302.305 471.735 301.172C488.846 300.038 501.793 285.648 500.616 269.077Z" fill="#FCA311"/>
<path d="M278.082 161.368C294.831 157.356 304.97 141.048 300.806 124.914C296.641 108.78 279.711 99.0114 262.963 103.023C246.485 106.948 230.279 113.053 214.708 121.512C183.654 138.431 159.21 162.676 142.642 190.584C126.074 218.492 117.383 250.149 117.383 282.418C117.383 283.552 117.383 284.686 117.383 285.819V468.789C117.383 485.359 131.325 498.877 148.617 498.877C165.909 498.877 179.852 485.446 179.852 468.789V282.243C179.852 282.156 179.852 281.982 179.852 281.895C179.942 260.353 185.827 239.073 196.872 220.41C208.008 201.573 224.304 185.351 245.399 173.839C255.991 168.17 266.946 164.072 278.082 161.368Z" fill="#FCA311"/>
<mask id="mask0_101_728" style="mask-type:alpha" maskUnits="userSpaceOnUse" x="224" y="205" width="165" height="158">
<path d="M365.043 335.726C395.915 306.074 396.006 257.846 365.224 228.02C334.443 198.193 284.377 198.193 253.414 227.845C222.542 257.497 218.014 339.825 233.406 354.651C248.706 369.477 334.08 365.378 365.043 335.726Z" fill="#14213D"/>
</mask>
<g mask="url(#mask0_101_728)">
<path d="M409.014 268.464C409.014 339.916 348.884 397.838 274.71 397.838C200.537 397.838 140.407 339.916 140.407 268.464C140.407 197.013 200.537 139.09 274.71 139.09C348.884 139.09 409.014 197.013 409.014 268.464Z" fill="url(#paint0_linear_101_728)"/>
<path d="M409.014 268.464C409.014 339.916 348.884 397.838 274.71 397.838C200.537 397.838 140.407 339.916 140.407 268.464C140.407 197.013 200.537 139.09 274.71 139.09C348.884 139.09 409.014 197.013 409.014 268.464Z" fill="url(#paint1_radial_101_728)"/>
<path d="M409.014 268.464C409.014 339.916 348.884 397.838 274.71 397.838C200.537 397.838 140.407 339.916 140.407 268.464C140.407 197.013 200.537 139.09 274.71 139.09C348.884 139.09 409.014 197.013 409.014 268.464Z" fill="url(#paint2_radial_101_728)"/>
<path d="M409.014 268.464C409.014 339.916 348.884 397.838 274.71 397.838C200.537 397.838 140.407 339.916 140.407 268.464C140.407 197.013 200.537 139.09 274.71 139.09C348.884 139.09 409.014 197.013 409.014 268.464Z" fill="url(#paint3_radial_101_728)"/>
<path d="M409.014 268.464C409.014 339.916 348.884 397.838 274.71 397.838C200.537 397.838 140.407 339.916 140.407 268.464C140.407 197.013 200.537 139.09 274.71 139.09C348.884 139.09 409.014 197.013 409.014 268.464Z" fill="url(#paint4_radial_101_728)"/>
<path d="M409.014 268.464C409.014 339.916 348.884 397.838 274.71 397.838C200.537 397.838 140.407 339.916 140.407 268.464C140.407 197.013 200.537 139.09 274.71 139.09C348.884 139.09 409.014 197.013 409.014 268.464Z" fill="url(#paint5_radial_101_728)"/>
<g style="mix-blend-mode:soft-light" opacity="0.5">
<path d="M409.014 268.464C409.014 339.916 348.884 397.838 274.71 397.838C200.537 397.838 140.407 339.916 140.407 268.464C140.407 197.013 200.537 139.09 274.71 139.09C348.884 139.09 409.014 197.013 409.014 268.464Z" fill="url(#paint6_linear_101_728)"/>
<path d="M409.014 268.464C409.014 339.916 348.884 397.838 274.71 397.838C200.537 397.838 140.407 339.916 140.407 268.464C140.407 197.013 200.537 139.09 274.71 139.09C348.884 139.09 409.014 197.013 409.014 268.464Z" fill="url(#paint7_radial_101_728)"/>
<path d="M409.014 268.464C409.014 339.916 348.884 397.838 274.71 397.838C200.537 397.838 140.407 339.916 140.407 268.464C140.407 197.013 200.537 139.09 274.71 139.09C348.884 139.09 409.014 197.013 409.014 268.464Z" fill="url(#paint8_radial_101_728)"/>
<path d="M409.014 268.464C409.014 339.916 348.884 397.838 274.71 397.838C200.537 397.838 140.407 339.916 140.407 268.464C140.407 197.013 200.537 139.09 274.71 139.09C348.884 139.09 409.014 197.013 409.014 268.464Z" fill="url(#paint9_radial_101_728)"/>
<path d="M409.014 268.464C409.014 339.916 348.884 397.838 274.71 397.838C200.537 397.838 140.407 339.916 140.407 268.464C140.407 197.013 200.537 139.09 274.71 139.09C348.884 139.09 409.014 197.013 409.014 268.464Z" fill="url(#paint10_radial_101_728)"/>
</g>
</g>
</g>
<defs>
<linearGradient id="paint0_linear_101_728" x1="274.71" y1="168.738" x2="332.184" y2="364.001" gradientUnits="userSpaceOnUse">
<stop stop-color="#A893E8"/>
<stop offset="1" stop-color="#9EA1DC"/>
</linearGradient>
<radialGradient id="paint1_radial_101_728" cx="0" cy="0" r="1" gradientUnits="userSpaceOnUse" gradientTransform="translate(375.438 381.667) rotate(-131.918) scale(134.022 129.072)">
<stop stop-color="#606EF5"/>
<stop offset="1" stop-color="#909ADD" stop-opacity="0"/>
</radialGradient>
<radialGradient id="paint2_radial_101_728" cx="0" cy="0" r="1" gradientUnits="userSpaceOnUse" gradientTransform="translate(341.862 139.09) rotate(117.432) scale(145.764 142.827)">
<stop stop-color="#8874FF"/>
<stop offset="1" stop-color="#8874FF" stop-opacity="0"/>
</radialGradient>
<radialGradient id="paint3_radial_101_728" cx="0" cy="0" r="1" gradientUnits="userSpaceOnUse" gradientTransform="translate(106.831 128.309) rotate(35.5872) scale(240.841 193.068)">
<stop stop-color="white" stop-opacity="0.79"/>
<stop offset="1" stop-color="white" stop-opacity="0"/>
</radialGradient>
<radialGradient id="paint4_radial_101_728" cx="0" cy="0" r="1" gradientUnits="userSpaceOnUse" gradientTransform="translate(162.791 160.652) rotate(43.929) scale(97.1255 70.4928)">
<stop stop-color="white" stop-opacity="0.49"/>
<stop offset="1" stop-color="white" stop-opacity="0"/>
</radialGradient>
<radialGradient id="paint5_radial_101_728" cx="0" cy="0" r="1" gradientUnits="userSpaceOnUse" gradientTransform="translate(326.6 268.464) rotate(48.8403) scale(74.2034 61.5744)">
<stop stop-color="white" stop-opacity="0.15"/>
<stop offset="1" stop-color="white" stop-opacity="0"/>
</radialGradient>
<linearGradient id="paint6_linear_101_728" x1="274.71" y1="168.738" x2="332.184" y2="364.001" gradientUnits="userSpaceOnUse">
<stop stop-color="#A893E8"/>
<stop offset="1" stop-color="#9EA1DC"/>
</linearGradient>
<radialGradient id="paint7_radial_101_728" cx="0" cy="0" r="1" gradientUnits="userSpaceOnUse" gradientTransform="translate(375.438 381.667) rotate(-131.918) scale(134.022 129.072)">
<stop stop-color="#606EF5"/>
<stop offset="1" stop-color="#909ADD" stop-opacity="0"/>
</radialGradient>
<radialGradient id="paint8_radial_101_728" cx="0" cy="0" r="1" gradientUnits="userSpaceOnUse" gradientTransform="translate(341.862 139.09) rotate(117.047) scale(169.882 166.526)">
<stop stop-color="#8874FF"/>
<stop offset="1" stop-color="#8874FF" stop-opacity="0"/>
</radialGradient>
<radialGradient id="paint9_radial_101_728" cx="0" cy="0" r="1" gradientUnits="userSpaceOnUse" gradientTransform="translate(106.831 128.309) rotate(38.6456) scale(245.633 197.674)">
<stop stop-color="white" stop-opacity="0.79"/>
<stop offset="1" stop-color="white" stop-opacity="0"/>
</radialGradient>
<radialGradient id="paint10_radial_101_728" cx="0" cy="0" r="1" gradientUnits="userSpaceOnUse" gradientTransform="translate(162.791 160.652) rotate(42.4428) scale(139.337 100.934)">
<stop stop-color="white" stop-opacity="0.49"/>
<stop offset="1" stop-color="white" stop-opacity="0"/>
</radialGradient>
<clipPath id="clip0_101_728">
<rect width="518.832" height="518.832" fill="white" transform="translate(41.084 41.084)"/>
</clipPath>
</defs>
</svg>
